<svg width="124" height="37" viewBox="0 0 124 37" xmlns="http://www.w3.org/2000/svg">
    <g fill-rule="nonzero" fill="none">
        <path d="M122.987 32.88a3.507 3.507 0 0 1-3.505 3.505H4.52A3.51 3.51 0 0 1 1 32.879V4.903a3.521 3.521 0 0 1 3.519-3.518h114.95a3.519 3.519 0 0 1 3.518 3.505v27.99z" fill="#FFF"/>
        <path d="M122.987 32.88a3.507 3.507 0 0 1-3.505 3.505H4.52A3.51 3.51 0 0 1 1 32.879V4.903a3.521 3.521 0 0 1 3.519-3.518h114.95a3.519 3.519 0 0 1 3.518 3.505v27.99z" stroke="#666" fill="#000"/>
        <path d="M28.666 19.222c-.027-2.886 2.359-4.288 2.48-4.355-1.348-1.969-3.451-2.238-4.193-2.265-1.766-.189-3.478 1.051-4.368 1.051-.917 0-2.292-1.038-3.788-1.01-1.915.026-3.708 1.145-4.692 2.858-2.036 3.518-.513 8.682 1.429 11.513.97 1.39 2.117 2.94 3.6 2.886 1.456-.054 1.995-.93 3.761-.93 1.74 0 2.252.93 3.775.89 1.564-.028 2.548-1.403 3.492-2.805 1.12-1.591 1.578-3.168 1.591-3.25-.054.028-3.06-1.118-3.087-4.583zm-2.872-8.494c.782-.984 1.321-2.306 1.173-3.667-1.133.054-2.548.782-3.37 1.739-.729.85-1.362 2.224-1.2 3.532 1.28.108 2.588-.633 3.397-1.604zM49.752 28.686h-2.036l-1.119-3.505h-3.87l-1.065 3.505h-1.981l3.842-11.918h2.373l3.856 11.918zm-3.479-4.975-1.01-3.114c-.109-.324-.31-1.065-.607-2.252h-.04a141.4 141.4 0 0 1-.567 2.252l-.998 3.114h3.222zm13.334.58c0 1.456-.39 2.616-1.186 3.465-.715.755-1.591 1.132-2.656 1.132-1.133 0-1.955-.404-2.454-1.213v4.517h-1.914v-9.263c0-.917-.027-1.86-.068-2.831h1.686l.107 1.362h.04c.635-1.025 1.605-1.537 2.9-1.537 1.01 0 1.86.404 2.534 1.2.674.795 1.011 1.847 1.011 3.168zm-1.941.067c0-.835-.189-1.523-.566-2.076-.418-.566-.971-.85-1.659-.85a1.98 1.98 0 0 0-1.28.473 2.24 2.24 0 0 0-.755 1.227c-.054.188-.081.39-.095.58v1.428c0 .62.189 1.146.58 1.578.377.431.876.647 1.496.647.715 0 1.281-.283 1.686-.836.39-.54.593-1.267.593-2.17zm11.837-.067c0 1.456-.39 2.616-1.186 3.465-.715.755-1.591 1.132-2.656 1.132-1.133 0-1.955-.404-2.454-1.213v4.517h-1.914v-9.263c0-.917-.027-1.86-.068-2.831h1.686l.107 1.362h.04c.635-1.025 1.605-1.537 2.9-1.537 1.01 0 1.86.404 2.534 1.2.674.795 1.011 1.847 1.011 3.168zm-1.941.067c0-.835-.189-1.523-.566-2.076-.418-.566-.971-.85-1.659-.85a1.98 1.98 0 0 0-1.28.473 2.24 2.24 0 0 0-.755 1.227c-.054.242-.095.431-.095.58v1.428c0 .62.189 1.146.58 1.578.377.431.876.647 1.496.647.715 0 1.281-.283 1.686-.836.39-.54.593-1.267.593-2.17zm12.997.985c0 1.01-.35 1.833-1.065 2.48-.782.701-1.86 1.038-3.25 1.038-1.28 0-2.305-.242-3.087-.741l.445-1.59c.836.498 1.753.74 2.764.74.714 0 1.28-.161 1.685-.485.405-.323.607-.755.607-1.294 0-.485-.162-.89-.499-1.227-.337-.324-.876-.634-1.645-.917-2.09-.782-3.128-1.914-3.128-3.41 0-.985.364-1.78 1.106-2.4.741-.62 1.712-.944 2.925-.944 1.079 0 1.996.188 2.71.566l-.485 1.55c-.674-.364-1.443-.552-2.292-.552-.674 0-1.2.161-1.577.498-.324.297-.486.661-.486 1.079 0 .472.189.863.553 1.173.324.283.89.593 1.74.917 1.024.418 1.779.89 2.264 1.456.472.553.715 1.24.715 2.063zm6.336-3.816h-2.103v4.18c0 1.065.378 1.59 1.12 1.59.336 0 .62-.026.849-.094l.054 1.456c-.378.135-.877.216-1.483.216-.755 0-1.349-.23-1.767-.688-.418-.458-.633-1.227-.633-2.319v-4.327h-1.254v-1.43h1.254v-1.577l1.874-.566v2.143h2.103v1.416h-.014zm9.479 2.791c0 1.321-.378 2.4-1.133 3.25-.795.876-1.834 1.307-3.155 1.307-1.267 0-2.265-.418-3.02-1.254-.755-.836-1.119-1.887-1.119-3.168 0-1.335.391-2.427 1.16-3.276.768-.85 1.82-1.268 3.127-1.268 1.268 0 2.279.418 3.047 1.254.728.823 1.093 1.874 1.093 3.155zm-1.982.04c0-.782-.176-1.47-.513-2.022-.404-.688-.97-1.025-1.712-1.025-.768 0-1.348.337-1.753 1.025-.337.566-.512 1.254-.512 2.063 0 .782.175 1.47.512 2.022.418.688.985 1.025 1.74 1.025.728 0 1.307-.35 1.712-1.038.35-.58.526-1.254.526-2.05zm8.197-2.588a3.077 3.077 0 0 0-.607-.054c-.674 0-1.186.256-1.564.755-.323.445-.472 1.011-.472 1.699v4.516h-1.914v-5.892c0-.903-.014-1.806-.054-2.71h1.658l.068 1.645h.054a2.95 2.95 0 0 1 .957-1.361 2.309 2.309 0 0 1 1.375-.459c.175 0 .337.014.472.04l.027 1.82zm8.548 2.21c0 .298-.014.58-.068.864h-5.73c.027.85.297 1.496.836 1.941.485.405 1.106.607 1.874.607.85 0 1.618-.135 2.32-.405l.296 1.322c-.81.35-1.78.526-2.886.526-1.334 0-2.386-.391-3.14-1.173-.756-.782-1.147-1.834-1.147-3.155 0-1.295.35-2.373 1.065-3.236.742-.917 1.74-1.375 3.007-1.375 1.24 0 2.184.458 2.818 1.375.498.741.755 1.645.755 2.71zm-1.82-.498c.013-.566-.108-1.052-.378-1.47-.337-.525-.836-.795-1.524-.795-.62 0-1.132.256-1.523.782a2.77 2.77 0 0 0-.566 1.483h3.99zM42.188 13.586c-.526 0-.997-.027-1.375-.067v-5.77c.54-.082 1.079-.122 1.618-.122 2.198 0 3.195 1.078 3.195 2.831 0 2.036-1.186 3.128-3.438 3.128zm.31-5.218c-.296 0-.552.014-.755.068v4.382c.108.013.324.027.634.027 1.43 0 2.252-.823 2.252-2.346 0-1.376-.728-2.13-2.13-2.13zm6.27 5.259c-1.24 0-2.036-.917-2.036-2.171 0-1.308.822-2.238 2.103-2.238 1.213 0 2.036.876 2.036 2.17 0 1.322-.836 2.239-2.103 2.239zm.04-3.722c-.674 0-1.119.634-1.119 1.524 0 .876.445 1.51 1.106 1.51.66 0 1.105-.674 1.105-1.524 0-.862-.431-1.51-1.092-1.51zm9.114-.593-1.321 4.22h-.863l-.553-1.833a11.81 11.81 0 0 1-.337-1.362h-.013c-.068.458-.203.917-.337 1.362l-.58 1.833h-.876l-1.24-4.22h.97l.472 2.009c.108.472.202.93.283 1.362h.013c.068-.35.176-.796.35-1.348l.608-2.023h.768l.58 1.969c.135.471.256.943.337 1.388h.027c.067-.431.162-.89.283-1.388l.512-1.969h.917zm4.867 4.22h-.944v-2.427c0-.741-.283-1.119-.849-1.119-.553 0-.944.472-.944 1.038v2.508h-.943v-3.02c0-.377-.014-.768-.04-1.213h.822l.04.647h.027c.256-.445.768-.742 1.335-.742.89 0 1.47.674 1.47 1.78l.026 2.548zm2.589 0h-.944V7.371h.944v6.161zm3.424.095c-1.24 0-2.036-.917-2.036-2.171 0-1.308.823-2.238 2.104-2.238 1.213 0 2.036.876 2.036 2.17 0 1.322-.85 2.239-2.104 2.239zm.027-3.722c-.674 0-1.119.634-1.119 1.524 0 .876.445 1.51 1.106 1.51.66 0 1.105-.674 1.105-1.524 0-.862-.431-1.51-1.092-1.51zm5.77 3.627-.067-.485h-.027c-.283.39-.7.58-1.24.58-.755 0-1.294-.526-1.294-1.24 0-1.039.903-1.578 2.467-1.578v-.081c0-.553-.297-.836-.876-.836-.418 0-.782.108-1.106.31l-.189-.62c.391-.243.877-.364 1.456-.364 1.106 0 1.659.58 1.659 1.753v1.55c0 .431.013.755.067 1.011h-.85zm-.12-2.103c-1.039 0-1.565.256-1.565.85 0 .444.27.66.648.66.471 0 .916-.364.916-.863v-.647zm5.473 2.103-.04-.674h-.027c-.27.512-.728.769-1.362.769-1.025 0-1.78-.89-1.78-2.158 0-1.32.782-2.251 1.847-2.251.567 0 .971.189 1.187.58h.013V7.37h.944V12.4c0 .404.014.795.04 1.132h-.822zm-.148-2.48c0-.594-.391-1.093-.984-1.093-.701 0-1.12.62-1.12 1.483 0 .85.445 1.43 1.106 1.43.593 0 1.011-.513 1.011-1.12v-.7h-.013zm6.903 2.575c-1.24 0-2.036-.917-2.036-2.171 0-1.308.822-2.238 2.103-2.238 1.214 0 2.036.876 2.036 2.17 0 1.322-.836 2.239-2.103 2.239zm.04-3.722c-.674 0-1.105.634-1.105 1.524 0 .876.445 1.51 1.105 1.51.66 0 1.106-.674 1.106-1.524-.014-.862-.445-1.51-1.106-1.51zm7.119 3.627h-.944v-2.427c0-.741-.283-1.119-.85-1.119-.552 0-.943.472-.943 1.038v2.508h-.944v-3.02c0-.377-.013-.768-.04-1.213h.822l.04.647h.028c.256-.445.768-.742 1.334-.742.89 0 1.47.674 1.47 1.78v2.548h.027zm6.323-3.519h-1.038v2.05c0 .525.175.782.553.782.161 0 .31-.014.418-.04l.027.714a2.127 2.127 0 0 1-.729.108c-.741 0-1.186-.405-1.186-1.484v-2.13h-.62v-.7h.62v-.77l.917-.282v1.051h1.038v.701zm4.961 3.52h-.943v-2.414c0-.755-.283-1.133-.85-1.133-.485 0-.943.337-.943.998v2.548h-.944V7.371h.944v2.534h.013a1.433 1.433 0 0 1 1.267-.687c.89 0 1.443.7 1.443 1.793l.013 2.521zm5.097-1.888h-2.818c.013.795.553 1.253 1.335 1.253.418 0 .795-.067 1.132-.202l.149.647c-.405.176-.877.257-1.416.257-1.321 0-2.103-.836-2.103-2.13 0-1.295.795-2.266 1.995-2.266 1.079 0 1.753.796 1.753 2.01.013.147 0 .296-.027.43zm-.863-.661c0-.647-.324-1.119-.93-1.119-.54 0-.971.472-1.025 1.119h1.955z" fill="#FFF"/>
    </g>
</svg>
