<svg width="124" height="37" viewBox="0 0 124 37" xmlns="http://www.w3.org/2000/svg">
    <defs>
        <linearGradient x1="50.088%" y1="-.308%" x2="50.088%" y2="99.252%" id="bkrszjsu8a">
            <stop stop-color="#4D7BAB" offset="0%"/>
            <stop stop-color="#6590B0" offset="28.6%"/>
            <stop stop-color="#8EBAB8" offset="76.7%"/>
            <stop stop-color="#9ECCBA" offset="100%"/>
        </linearGradient>
        <linearGradient x1="63.673%" y1="24.821%" x2="33.759%" y2="81.463%" id="ao76nrk7ab">
            <stop stop-color="#DA8679" offset="0%"/>
            <stop stop-color="#DC8E7A" offset="11.9%"/>
            <stop stop-color="#E9B57A" offset="71.3%"/>
            <stop stop-color="#EEC678" offset="100%"/>
        </linearGradient>
        <linearGradient x1="86.587%" y1="30.456%" x2="4.811%" y2="81.483%" id="f3tvd5v8cc">
            <stop stop-color="#CB433F" offset="0%"/>
            <stop stop-color="#BB4652" offset="16.7%"/>
            <stop stop-color="#984978" offset="57.5%"/>
            <stop stop-color="#834C8E" offset="86.2%"/>
            <stop stop-color="#7A4B97" offset="100%"/>
        </linearGradient>
        <linearGradient x1="10.616%" y1="24.764%" x2="88.836%" y2="70.646%" id="gloj047w8d">
            <stop stop-color="#7EBEAA" offset="0%"/>
            <stop stop-color="#DEE59C" offset="100%"/>
        </linearGradient>
    </defs>
    <g fill-rule="nonzero" fill="none">
        <path d="M122.987 32.88a3.507 3.507 0 0 1-3.505 3.505H4.52A3.51 3.51 0 0 1 1 32.879V4.903a3.521 3.521 0 0 1 3.519-3.518h114.95a3.519 3.519 0 0 1 3.518 3.505v27.99z" stroke="#666" fill="#000"/>
        <path d="M43.86 11.658c0 .715-.175 1.348-.62 1.793-.54.54-1.16.81-1.968.81-.81 0-1.43-.27-1.969-.81-.54-.539-.809-1.16-.809-1.968 0-.81.27-1.43.81-1.969.538-.539 1.159-.808 1.968-.808.364 0 .714.094 1.078.27.364.174.62.363.81.62l-.46.444c-.363-.445-.808-.62-1.428-.62-.54 0-1.079.175-1.43.62-.444.364-.62.89-.62 1.524 0 .62.176 1.16.62 1.523.445.364.89.62 1.43.62.62 0 1.078-.175 1.523-.62.27-.27.445-.62.445-1.078h-1.968v-.715h2.602v.364h-.014zm4.126-2.238h-2.414v1.699h2.238v.62h-2.238v1.699h2.414v.714h-3.128V8.786h3.128v.634zm2.952 4.746h-.714V9.42H48.7V8.8h3.762v.62h-1.524v4.746zm4.112 0V8.8h.715v5.366h-.715zm3.762 0h-.715V9.42h-1.523V8.8h3.667v.62h-1.523v4.746h.094zm8.507-.715c-.539.54-1.16.81-1.968.81-.81 0-1.43-.27-1.969-.81-.539-.539-.808-1.16-.808-1.968 0-.81.27-1.43.808-1.969.54-.539 1.16-.808 1.969-.808.809 0 1.429.27 1.968.808.54.54.81 1.16.81 1.969 0 .809-.27 1.429-.81 1.968zm-3.397-.458c.364.364.89.62 1.429.62.54 0 1.078-.175 1.429-.62.364-.364.62-.89.62-1.524 0-.62-.175-1.16-.62-1.523-.364-.364-.89-.62-1.43-.62-.538 0-1.078.175-1.428.62-.364.364-.62.89-.62 1.523-.014.634.175 1.173.62 1.524zm5.19 1.173V8.8h.81l2.601 4.206V8.8h.715v5.366h-.715l-2.777-4.382v4.382h-.634zM62.398 20.88c-2.143 0-3.856 1.618-3.856 3.856a3.83 3.83 0 0 0 3.856 3.856c2.157 0 3.856-1.618 3.856-3.856 0-2.332-1.712-3.856-3.856-3.856zm0 6.08c-1.16 0-2.143-.984-2.143-2.332 0-1.348.984-2.332 2.143-2.332 1.16 0 2.144.89 2.144 2.332 0 1.348-.984 2.333-2.144 2.333zm-8.332-6.08c-2.143 0-3.856 1.618-3.856 3.856a3.83 3.83 0 0 0 3.856 3.856c2.144 0 3.856-1.618 3.856-3.856 0-2.332-1.699-3.856-3.856-3.856zm0 6.08c-1.16 0-2.143-.984-2.143-2.332 0-1.348.984-2.332 2.143-2.332 1.16 0 2.144.89 2.144 2.332.013 1.348-.97 2.333-2.144 2.333zm-9.936-4.92v1.617h3.856c-.095.89-.445 1.618-.89 2.063-.54.54-1.43 1.16-2.953 1.16-2.413 0-4.206-1.874-4.206-4.301 0-2.414 1.874-4.301 4.206-4.301 1.254 0 2.238.54 2.953 1.16l1.16-1.16c-.985-.89-2.239-1.618-4.032-1.618-3.222 0-6 2.683-6 5.905 0 3.223 2.778 5.906 6 5.906 1.793 0 3.047-.54 4.112-1.7 1.079-1.078 1.43-2.601 1.43-3.76 0-.365 0-.715-.095-.985H44.13v.013zm40.649 1.253c-.364-.89-1.254-2.413-3.222-2.413-1.969 0-3.587 1.524-3.587 3.856 0 2.144 1.618 3.856 3.762 3.856 1.699 0 2.777-1.079 3.128-1.699l-1.254-.89c-.445.62-.984 1.079-1.874 1.079-.89 0-1.43-.364-1.874-1.16l5.11-2.143-.19-.486zm-5.19 1.254c0-1.429 1.159-2.238 1.968-2.238.62 0 1.253.364 1.429.81l-3.398 1.428zm-4.207 3.667h1.698v-11.19h-1.698v11.19zm-2.683-6.539c-.445-.444-1.16-.89-2.063-.89-1.874 0-3.667 1.7-3.667 3.857 0 2.143 1.699 3.761 3.667 3.761.89 0 1.618-.445 1.968-.89h.095v.54c0 1.429-.81 2.238-2.063 2.238-.984 0-1.699-.715-1.874-1.349l-1.43.62c.446.985 1.524 2.239 3.398 2.239 1.969 0 3.587-1.16 3.587-3.937v-6.809h-1.618v.62zm-1.969 5.286c-1.16 0-2.143-.985-2.143-2.333 0-1.348.984-2.332 2.143-2.332 1.16 0 2.063.984 2.063 2.332-.013 1.348-.903 2.333-2.063 2.333zm21.842-9.937H88.54v11.19h1.7v-4.206h2.332c1.874 0 3.667-1.348 3.667-3.492s-1.793-3.492-3.667-3.492zm.094 5.38h-2.413v-3.856h2.413c1.254 0 1.968 1.078 1.968 1.874-.094.997-.809 1.982-1.968 1.982zm10.287-1.618c-1.254 0-2.508.539-2.953 1.698l1.524.62c.364-.62.89-.808 1.523-.808.89 0 1.699.539 1.793 1.429v.094c-.27-.175-.984-.445-1.698-.445-1.618 0-3.223.89-3.223 2.508 0 1.523 1.349 2.508 2.778 2.508 1.16 0 1.699-.54 2.143-1.079h.095v.89h1.618v-4.3c-.19-1.956-1.713-3.115-3.6-3.115zm-.175 6.175c-.54 0-1.349-.27-1.349-.985 0-.89.985-1.16 1.794-1.16.714 0 1.078.176 1.523.365-.175 1.065-1.079 1.78-1.968 1.78zm9.397-5.906-1.874 4.84h-.095l-1.968-4.84h-1.793l2.952 6.809-1.698 3.761h1.698l4.57-10.57h-1.792zm-15.033 7.16h1.699v-11.19h-1.699v11.19z" fill="#FFF"/>
        <path d="M.364.295C.094.565 0 1.009 0 1.549v19.778c0 .54.175.984.445 1.254l.094.094L11.635 11.58v-.175L.364.294z" fill="url(#bkrszjsu8a)" transform="translate(13.12 7.723)"/>
        <path d="m15.235 15.327-3.667-3.667v-.27l3.667-3.667.094.095 4.382 2.508c1.254.714 1.254 1.874 0 2.602l-4.476 2.4z" fill="url(#ao76nrk7ab)" transform="translate(13.12 7.723)"/>
        <path d="m15.316 15.247-3.762-3.762-11.19 11.19c.445.445 1.079.445 1.874.095l13.078-7.523" fill="url(#f3tvd5v8cc)" transform="translate(13.12 7.723)"/>
        <path d="M15.316 7.723 2.238.295C1.43-.15.808-.07.364.389l11.19 11.096 3.762-3.762z" fill="url(#gloj047w8d)" transform="translate(13.12 7.723)"/>
    </g>
</svg>
