<?xml version="1.0" encoding="UTF-8"?><svg id="Capa_2" xmlns="http://www.w3.org/2000/svg" viewBox="0 0 520.64 60"><defs><style>.cls-1{fill:#000;fill-rule:evenodd;stroke-width:0px;}</style></defs><g id="Réteg_1"><g id="salomon-inline"><path class="cls-1" d="M94.74.55h27.95l11.77,58.94h-20.37l-1.94-10.78h-22.65l-4.87,10.78h-20.38L94.74.55h0ZM94.57,37.43h16.5l-3.78-24.75h-.17l-12.55,24.75h0ZM161.33,45.34h29.05l-2.02,14.15h-48.68L148.53.55h19.62l-6.82,44.79ZM333.36.55h25.68l5.13,58.94h-19.62l-2.95-41.51h-.16l-17.69,41.51h-23.24l-4.54-42.53h-.17l-14.31,42.53h-19.19L284.1.55h25.01l5.22,44.21h.17L333.36.55h0ZM520.64.55l-8.84,58.94h-27.45l-17.69-42.27h-.17l-5.72,42.27h-18.69L450.92.55h26.53l18.69,43.19h.16l6.65-43.19h17.69ZM262.78,38.53c-1.68,9.09-6.14,14.48-12.63,17.68-6.49,3.2-15.08,3.79-24.93,3.79s-17.98-.6-23.4-3.79c-5.42-3.2-7.92-8.59-6.24-17.68l3.12-17.05c1.69-9.06,6.23-14.57,12.79-17.76C218.07.51,226.49,0,236.34,0s18.08.51,23.41,3.7c5.34,3.2,7.83,8.67,6.15,17.76l-3.12,17.05ZM233.94,12.91c-9.85,0-14.14.84-16,10.19l-2.82,14.24c-1.85,9.45,1.86,10.26,12.05,10.26s14.14-.92,15.99-10.26l2.78-14.24c1.77-9.26-1.6-10.18-12-10.19ZM434.25,3.74c5.3,3.2,7.81,8.67,6.14,17.73l-3.11,17.05c-1.71,9.08-6.15,14.48-12.64,17.68-6.48,3.2-15.07,3.79-24.92,3.79s-17.98-.6-23.4-3.79c-5.43-3.2-7.92-8.59-6.24-17.68l3.12-17.05c1.68-9.06,6.23-14.53,12.8-17.73,6.57-3.2,14.99-3.7,24.84-3.7s18.02.51,23.41,3.7h0ZM420.44,23.1c1.77-9.26-1.6-10.18-12.04-10.19-9.85,0-14.15.84-16,10.19l-2.74,14.24c-1.85,9.45,1.86,10.26,12.05,10.26s14.14-.92,15.99-10.26l2.74-14.24h0ZM64.52,41.82l-1.18,5.73c-1.82,9.02-4.64,12.4-16.43,12.4H13.85c-10.96,0-15.18-3.79-13.49-12.23l1.69-8.43h17.52l-1.18,5.91c-.33,1.68.26,2.77,2.69,3.2,2.06.34,4.56.42,9.36.42,3.01.01,6.02-.07,9.02-.25,3.05-.25,3.73-.75,4.06-2.53.42-2.03-.08-2.79-6.24-5.82l-21.16-10.37c-8.35-4.14-9.87-7.33-8.77-12.9l1.1-5.48C10.3,2.19,13.51,0,25.66,0h32.97c9.95,0,12.64,3.8,11.12,11.47l-1.85,9.28h-18.29l1-5.06c.67-3.38.09-4.13-5.06-4.46-1.43-.09-4.21-.18-6.41-.18-3.54,0-7.16.09-9.11.26-3.12.33-3.88,1.01-4.13,2.28-.42,2.11-.08,3.04,4.55,5.31l28.59,14.08c5.64,2.79,6.31,4.56,5.47,8.85Z"/></g></g></svg>