<?xml version="1.0" encoding="UTF-8"?><svg id="Layer_2" xmlns="http://www.w3.org/2000/svg" viewBox="0 0 718.4 111.6"><defs><style>.cls-1{fill:#fff;}</style></defs><g id="SECONDARY_LOGO"><g id="COLOR"><g id="TAGLINE"><polygon class="cls-1" points="420.6 95.1 420.6 97 416.5 97 416.5 111.3 414.5 111.3 414.5 97 410.3 97 410.3 95.1 420.6 95.1"/><polygon class="cls-1" points="440 95.1 440 111.3 438 111.3 438 103.5 429.1 103.5 429.1 111.3 427.1 111.3 427.1 95.1 429.1 95.1 429.1 101.6 438 101.6 438 95.1 440 95.1"/><polygon class="cls-1" points="450.3 97 450.3 101.6 457.1 101.6 457.1 103.5 450.3 103.5 450.3 109.5 457.6 109.5 457.6 111.3 448.3 111.3 448.3 95.1 457.6 95.1 457.6 97 450.3 97"/><path class="cls-1" d="m486.8,104.7c-.3-.5-.7-1-1.2-1.3s-1.1-.6-1.8-.8c-.1,0-.2-.1-.3-.1.1,0,.3-.1.4-.1.7-.3,1.3-.7,1.7-1.2s.6-1.2.6-1.9c0-.9-.2-1.7-.6-2.3-.4-.6-1-1-1.7-1.3s-1.6-.4-2.5-.4h-4.2v16.2h4.4c1,0,2-.2,2.8-.5s1.5-.9,2-1.6.7-1.6.7-2.7c.1-.8,0-1.5-.3-2h0Zm-7.5-7.9h2.2c.8,0,1.5.2,2,.6s.8,1,.8,1.8c0,.5-.1.9-.4,1.3-.2.4-.6.6-1,.8-.4.2-.9.3-1.5.3h-2.2l.1-4.8h0Zm5.5,11.4c-.3.5-.7.8-1.2,1.1-.5.2-1.1.4-1.9.4h-2.4v-6.2h2.4c.5,0,1,.1,1.4.2s.8.3,1.1.6c.3.3.6.6.7,1,.2.4.3.8.3,1.3,0,.5-.1,1.1-.4,1.6Z"/><rect class="cls-1" x="494.8" y="95.1" width="2" height="16.2"/><polygon class="cls-1" points="516.1 111.3 513.7 111.3 507 103.5 507 111.3 505 111.3 505 95.1 507 95.1 507 102.1 513.3 95.1 515.8 95.1 508.8 102.7 516.1 111.3"/><polygon class="cls-1" points="524 97 524 101.6 530.9 101.6 530.9 103.5 524 103.5 524 109.5 531.3 109.5 531.3 111.3 522 111.3 522 95.1 531.3 95.1 531.3 97 524 97"/><path class="cls-1" d="m560.8,106.9c0,.7-.1,1.3-.4,1.9s-.6,1.1-1.1,1.5-1,.7-1.6.9c-.6.2-1.2.3-1.9.3-.9,0-1.7-.2-2.5-.6s-1.4-.9-2-1.5-1-1.3-1.4-2l1.6-1.1c.4.7.8,1.2,1.2,1.7s.9.9,1.4,1.2,1.1.4,1.7.4c.9,0,1.6-.2,2.1-.7s.8-1.1.8-1.8-.2-1.3-.5-1.7c-.3-.4-.8-.8-1.3-1.1-.5-.3-1.1-.5-1.8-.7-.4-.1-.8-.3-1.3-.6-.5-.2-1-.5-1.4-.8-.5-.3-.8-.8-1.1-1.3s-.4-1.1-.4-1.9.2-1.5.6-2.2c.4-.6,1-1.1,1.7-1.5s1.5-.6,2.4-.6,1.6.2,2.3.5,1.2.8,1.7,1.3.8,1.1,1.1,1.6l-1.7,1c-.2-.4-.5-.8-.8-1.2s-.7-.7-1.1-.9-1-.4-1.6-.4c-.9,0-1.5.2-1.9.6s-.6.9-.6,1.4c0,.4.1.9.3,1.2s.6.7,1.2,1.1c.5.3,1.3.7,2.2,1,.4.2.9.4,1.4.6s.9.6,1.3.9c.4.4.8.8,1,1.4.3.8.4,1.4.4,2.1h0Z"/><path class="cls-1" d="m577.5,97.4c-.5-.7-1.1-1.3-2-1.7-.8-.4-1.8-.6-2.8-.6h-4.4v16.2h2v-6.5h2.4c1,0,2-.2,2.8-.6s1.5-.9,2-1.7c.5-.7.7-1.6.7-2.6s-.2-1.8-.7-2.5Zm-2.2,4.8c-.7.5-1.5.8-2.6.8h-2.4v-6h2.4c1,0,1.9.2,2.6.8.7.5,1,1.3,1,2.3s-.4,1.6-1,2.1Z"/><polygon class="cls-1" points="587.1 97 587.1 101.6 593.9 101.6 593.9 103.5 587.1 103.5 587.1 109.5 594.4 109.5 594.4 111.3 585.1 111.3 585.1 95.1 594.4 95.1 594.4 97 587.1 97"/><path class="cls-1" d="m603.8,99.9c-.6.9-.8,2.1-.8,3.3s.3,2.4.8,3.3c.6,1,1.3,1.7,2.2,2.2s1.9.8,3,.8c.8,0,1.5-.1,2.1-.3.6-.2,1.2-.5,1.8-.8.5-.4,1-.8,1.3-1.3v2.6c-.7.6-1.4,1.1-2.2,1.3-.8.3-1.8.4-3,.4s-2.2-.2-3.2-.6-1.8-1-2.6-1.7-1.3-1.6-1.7-2.7c-.4-1-.6-2.1-.6-3.3s.2-2.3.6-3.3c.4-1,1-1.9,1.7-2.7.7-.7,1.6-1.3,2.6-1.7,1-.4,2-.6,3.2-.6s2.2.2,3,.4c.8.3,1.5.7,2.2,1.3v2.6c-.4-.5-.8-.9-1.3-1.3s-1.1-.7-1.8-.8-1.3-.3-2.1-.3c-1.1,0-2.1.3-3,.8s-1.6,1.4-2.2,2.4h0Z"/><rect class="cls-1" x="622.1" y="95.1" width="2" height="16.2"/><path class="cls-1" d="m637.9,94.3l-7.5,17h2.2l2-4.9h6.5l2.1,4.9h2.2l-7.5-17h0Zm-2.5,10.3l2.5-5.8,2.5,5.8h-5Z"/><polygon class="cls-1" points="660 109.5 660 111.3 651.7 111.3 651.7 95.1 653.7 95.1 653.7 109.5 660 109.5"/><rect class="cls-1" x="666.4" y="95.1" width="2" height="16.2"/><path class="cls-1" d="m686.3,106.9c0,.7-.1,1.3-.4,1.9s-.6,1.1-1.1,1.5-1,.7-1.6.9c-.6.2-1.2.3-1.9.3-.9,0-1.7-.2-2.4-.6-.8-.4-1.4-.9-2-1.5s-1-1.3-1.4-2l1.6-1.1c.4.7.8,1.2,1.2,1.7s.9.9,1.4,1.2c.5.3,1.1.4,1.7.4.9,0,1.6-.2,2.1-.7s.8-1.1.8-1.8-.2-1.3-.5-1.7c-.3-.4-.8-.8-1.3-1.1-.5-.3-1.1-.5-1.8-.7-.4-.1-.8-.3-1.3-.6-.5-.2-1-.5-1.4-.8-.5-.3-.8-.8-1.1-1.3s-.4-1.1-.4-1.9.2-1.5.6-2.2c.4-.6,1-1.1,1.7-1.5s1.5-.6,2.4-.6,1.7.2,2.3.5c.7.3,1.2.8,1.7,1.3s.8,1.1,1.1,1.6l-1.7,1c-.2-.4-.5-.8-.8-1.2s-.7-.7-1.1-.9-1-.4-1.6-.4c-.9,0-1.5.2-1.9.6s-.6.9-.6,1.4c0,.4.1.9.3,1.2s.6.7,1.2,1.1c.5.3,1.3.7,2.2,1,.4.2.9.4,1.4.6s.9.6,1.3.9c.4.4.8.8,1,1.4.2.8.3,1.4.3,2.1h0Z"/><polygon class="cls-1" points="702.3 95.1 702.3 97 698.1 97 698.1 111.3 696.2 111.3 696.2 97 692 97 692 95.1 702.3 95.1"/><path class="cls-1" d="m718.4,106.9c0,.7-.1,1.3-.4,1.9s-.6,1.1-1.1,1.5-1,.7-1.6.9c-.6.2-1.2.3-1.9.3-.9,0-1.7-.2-2.5-.6s-1.4-.9-2-1.5-1-1.3-1.4-2l1.6-1.1c.4.7.8,1.2,1.2,1.7s.9.9,1.4,1.2,1.1.4,1.7.4c.9,0,1.6-.2,2.1-.7s.8-1.1.8-1.8-.2-1.3-.5-1.7c-.3-.4-.8-.8-1.3-1.1-.5-.3-1.1-.5-1.8-.7-.4-.1-.8-.3-1.3-.6-.5-.2-1-.5-1.4-.8-.5-.3-.8-.8-1.1-1.3s-.4-1.1-.4-1.9.2-1.5.6-2.2c.4-.6,1-1.1,1.7-1.5s1.5-.6,2.4-.6,1.7.2,2.3.5c.7.3,1.2.8,1.7,1.3s.8,1.1,1.1,1.6l-1.7,1c-.2-.4-.5-.8-.8-1.2s-.7-.7-1.1-.9-1-.4-1.6-.4c-.9,0-1.5.2-1.9.6s-.6.9-.6,1.4c0,.4.1.9.3,1.2s.6.7,1.2,1.1c.5.3,1.3.7,2.2,1,.4.2.9.4,1.4.6s.9.6,1.3.9c.4.4.8.8,1,1.4.3.8.4,1.4.4,2.1h0Z"/></g><g id="LOGOTIPO"><path class="cls-1" d="m207.4,75.3h-18l-3.4-28.2-15,21.3c-.4.6-1.2.6-1.6,0l-14.9-21.3-3.5,28.2h-18l10.2-62c.1-.9,1.2-1.1,1.8-.4l24.4,32.3c.4.5,1.2.5,1.6,0l24.5-32.3c.5-.7,1.6-.4,1.8.4l10.1,62Z"/><path class="cls-1" d="m259.8,11.7l-32.4,63.6h19.2l5-9.9h18.1l5.2,9.9h19.2l-32.5-63.6c-.4-.7-1.4-.7-1.8,0h0Zm-5.1,41.2l6-13.7,6.1,13.7h-12.1Z"/><path class="cls-1" d="m388.5,75.3h-18l-3.4-28.1-15,21.3c-.4.6-1.2.6-1.6,0l-14.9-21.3-3.4,28.1h-18l10.2-62c.1-.9,1.2-1.1,1.8-.4l24.4,32.3c.4.5,1.2.5,1.6,0l24.5-32.3c.5-.7,1.6-.4,1.8.4l10,62h0Z"/><path class="cls-1" d="m484.6,75.3h-18l-3.4-28.1-15,21.3c-.4.6-1.2.6-1.6,0l-14.9-21.3-3.4,28.1h-18l10.2-62c.1-.9,1.2-1.1,1.8-.4l24.4,32.3c.4.5,1.2.5,1.6,0l24.5-32.3c.5-.7,1.6-.4,1.8.4l10,62h0Z"/><path class="cls-1" d="m567.8,31.5c-1.7-3.9-4-7.3-7-10.1-3-2.8-6.6-5-10.6-6.6-4-1.5-8.5-2.3-13.3-2.3s-9.1.8-13.2,2.3c-4,1.5-7.6,3.7-10.6,6.6-3,2.8-5.4,6.2-7.1,10.1s-2.6,8.3-2.6,13.2.8,9.2,2.5,13.2,4,7.5,6.9,10.4c3,2.9,6.5,5.2,10.6,6.8s8.6,2.4,13.5,2.4,9.4-.8,13.5-2.4,7.6-3.9,10.6-6.8,5.3-6.4,6.9-10.4,2.5-8.4,2.5-13.2-.9-9.2-2.6-13.2h0Zm-17.3,21.9c-1.3,2.5-3.1,4.5-5.4,5.9-2.3,1.4-5,2.1-8.3,2.1s-5.9-.7-8.2-2.1c-2.3-1.4-4.1-3.4-5.4-5.9-1.3-2.5-1.9-5.4-1.9-8.7s.6-6.2,1.9-8.7c1.3-2.5,3.1-4.5,5.4-5.9,2.3-1.4,5.1-2.1,8.2-2.1,3.3,0,6.1.7,8.4,2.1,2.3,1.4,4.1,3.4,5.3,5.9s1.8,5.4,1.8,8.7-.6,6.1-1.8,8.7h0Z"/><polygon class="cls-1" points="638.5 14.1 638.5 29.2 621.3 29.2 621.3 75.3 604.4 75.3 604.4 29.2 587.2 29.2 587.2 14.1 638.5 14.1"/><polygon class="cls-1" points="718.4 14.1 718.4 75.3 701.4 75.3 701.4 50.9 677.3 50.9 677.3 75.3 660.3 75.3 660.3 14.1 677.3 14.1 677.3 35.8 701.4 35.8 701.4 14.1 718.4 14.1"/></g><g id="ISOTIPO"><path class="cls-1" d="m0,56.9c14-8.3,32.4-1.9,39.8,12.3,6.6,12.4,3.9,28.2-7,37.1-3.1,2.5-6.8,4.3-10.6,5.3,30.3-18.9,12.8-62.2-22.2-54.7h0Z"/><path class="cls-1" d="m92.3,111.6c-15.9-3.8-24.6-21.1-20.1-36.5,3.8-13.5,16.8-23,30.8-21.8,4,.4,7.9,1.6,11.3,3.6-34.9-7.5-52.4,35.8-22,54.7h0Z"/><path class="cls-1" d="m57.2,90c-1.1-9.8-.6-20.2-6.1-28.7-5.3-8.9-14.3-12.7-22.1-19.4-7.1-6-7.6-13.7-2.9-21.5,3.7-5.9,9.1-10.2,15.1-13.6,8.8-4.9,23.1-9.8,32.5-4.3,5.4,3.1,6.8,9.3,6.5,14.8-.2,7.3-2,14.7,5.7,18.6,8.7,4.1,19.6,1,28.4-1.8-3.5,2.2-7.2,4.1-11.1,5.5-6,2.1-13,3.4-19.3,1.1-6.2-2.3-9.9-7.4-10.7-13.9-.4-3.1-.3-6.5-.4-9.5-.2-2.6-.2-4.7-1.6-6.5-2.3-2.8-6.7-2.4-10.1-2-6.4,1-12.5,3.6-18,7.1-5,3.3-11,8.3-11.8,14.2-.2,2.5,1.1,4,3,6,2.7,2.7,6,5.1,9,7.7,4.8,4,9.7,9.1,12.3,15.1,4.9,10,2.9,20.7,1.6,31.1h0Z"/><circle class="cls-1" cx="93.2" cy="10" r="10"/></g></g></g></svg>