<?xml version="1.0" encoding="UTF-8"?><svg id="Capa_2" xmlns="http://www.w3.org/2000/svg" viewBox="0 0 323.4 60"><defs><style>.cls-1{font-family:ArialMT, Arial;font-size:6.74px;}.cls-2{stroke-width:0px;}.cls-3{fill:none;stroke:#000;stroke-miterlimit:10;stroke-width:.42px;}</style></defs><g id="Capa_2-2"><g id="outwell-logo"><path class="cls-2" d="M32.3,12.33c-5.69-3.23-11.06-1.83-15.31,1.16-.88.6-1.09.56-1.09-.11s.03-2.9.03-2.9L0,14.72v4.39l1.97-.63s.74-.46.74.84v33.28s.18.95-.67.95H0v4.21h20.29s.42.07.42-.7v-3.09s.07-.46-.56-.46h-3.51s-.74.28-.74-.88v-6.21s0-.11.98.32c.98.42,5.48,1.68,10.11.56,4.63-1.12,6.85-3.34,8.85-5.97,2-2.63,3.55-5.23,4.39-11.69.84-6.46-2.25-14.08-7.93-17.31ZM24.33,41.15c-2.04,1.65-4.88,1.65-6.64.46-1.75-1.19-1.72-4.25-1.72-4.25v-18.43c.04-1.05,5.3-2.14,8.42,2.56,2.28,3.26,2.46,8.07,2.46,11.27s-.49,6.74-2.53,8.39Z"/><path class="cls-2" d="M89.59,2.53s-3.16,6.11-7.69,8.53c-4.53,2.42-5.58,2.28-5.58,2.28v3.93h3.79v22.4s-.18,4.39,3.02,6.49c3.19,2.11,9.83,2.35,13.3.49,3.48-1.86,4.21-2.88,4.21-2.88l-1.93-3.97s-1.86,1.33-3.72.39c-1.86-.95-1.72-1.86-1.72-2.77v-20.22h5.44l1.26-5.51h-6.6s-.56-3.9.49-8.49c-2.74-.42-4.28-.67-4.28-.67Z"/><path class="cls-2" d="M135.96,42.41v-20.61s.7-6.39-5.51-9.51c-6.21-3.12-13.55-1.33-15.06-.7-1.51.63-2.25.88-1.93.25.32-.63.6-1.51.6-1.51l-4.28-1.47-4.81,11.41,4.63,1.86s2.25-3.41,5.76-3.93c3.51-.53,7.2.21,7.2,3.26v2.39s-9.37-.07-12.04.35c-2.67.42-7.86,1.54-9.65,10.39-1.79,8.85,6,13.13,10.6,13.09,4.6-.04,8-1.44,11.16-4.32.63,1.68,1.16,3.34,1.16,3.34h14.57v-4.28h-2.39ZM120.23,39.96c-2.63.95-4.81-.21-5.58-2.18-.77-1.97-1.16-5.77,1.3-7.78,2.46-2.01,4.14-1.73,6.63-1.73v6.81s.28,3.93-2.35,4.88Z"/><path class="cls-2" d="M314.84,42.31v-20.61s.7-6.39-5.51-9.51c-6.21-3.12-13.55-1.33-15.06-.7-1.51.63-2.25.88-1.93.25.32-.63.6-1.51.6-1.51l-4.28-1.47-4.81,11.41,4.63,1.86s2.25-3.41,5.76-3.93c3.51-.53,7.2.21,7.2,3.26v2.39s-9.37-.07-12.04.35c-2.67.42-7.86,1.54-9.65,10.39-1.79,8.85,6,13.13,10.6,13.09,4.6-.04,8-1.44,11.16-4.32.63,1.68,1.16,3.34,1.16,3.34h14.57v-4.28h-2.39ZM299.11,39.85c-2.63.95-4.81-.21-5.58-2.18-.77-1.97-1.16-5.77,1.3-7.78,2.46-2.01,4.14-1.73,6.63-1.73v6.81s.28,3.93-2.35,4.88Z"/><path class="cls-2" d="M75.96,42.48s-.53.28-.53-.7v-19.76s.7-6.95-6.56-10.32c-7.58-3.55-15.31.42-15.31.42,0,0-.81.4-.53-.3.28-.7.56-1.53.56-1.53l-4.28-1.44-4.81,11.48,4.49,1.76s1.97-2.7,4.56-3.62c2.6-.91,5.34-.56,6.88.25,1.54.81,1.58,2.32,1.58,2.7v2.35s-9.13.21-10.92.21-6.18.32-9.37,5.86c-3.19,5.55-1.12,12.22,1.4,14.57,2.53,2.35,6.49,4.21,11.76,2.91,5.27-1.3,7.37-4.07,7.37-4.07l1.02,3.41h14.39v-4.18h-1.72ZM59.69,39.8c-2.63.95-4.81-.21-5.58-2.18-.77-1.97-1.16-5.77,1.3-7.78,2.46-2.01,4.14-1.73,6.63-1.73v6.81s.28,3.93-2.35,4.88Z"/><path class="cls-2" d="M166.6,42.97c-6.99-2.39-12.04-2.46-12.04-2.46,0,0,5.16-1.44,8.81-2.67,3.65-1.23,7.48-3.37,9.41-7.44,1.93-4.07,1.57-8.85-.93-12.67-2.51-3.83-5.03-3.86-4.68-5.34.35-1.47,2.28-1.83,3.9-.56.74-2.95,1.68-6.64,1.68-6.64,0,0-4.63-.35-6.28.32-1.65.67-2.07,1.68-2.46,2.84-.39,1.16-.76,3.4-1.3,3.23,0,0-6.53-2.35-13.94-.18-7.41,2.18-10.25,7.9-10.15,13.9.11,6,3.51,10.81,12.32,12.64-1.76.74-5.63,3.27-10.65,3.73,1.16,2.56,1.84,4.84,1.84,4.84,0,0,3.83-.74,9.72.21-4.35,1.12-7.13,3.05-7.13,6.6s3.05,6.67,13.13,6.67,14.11-4.91,14.67-7.02c.56-2.11,1.05-7.62-5.93-10.01ZM150.46,19.88c-.21-4.35,2.98-4.77,2.98-4.77,5.27-.6,7.37,7.51,8.07,9.97.7,2.46,1.19,7.93-1.05,8.95-2.25,1.02-3.97.49-5.97-1.47-2-1.96-3.83-8.33-4.04-12.68ZM156.82,56.39c-2.31-1.06-2.04-5.59-.5-8.33,0,0,4.74,2.34,4.65,5.4-.09,3.07-2.5,3.68-4.14,2.93Z"/><path class="cls-2" d="M213.43,18.3c-4.98-6.92-14.25-8.99-23.8-6.85-9.55,2.14-16.71,12.43-13.44,23.13,3.27,10.71,14.08,12.57,14.08,12.57,4.95,1.09,14.64.95,21.24-4.95,6.6-5.9,6.92-16.99,1.93-23.91ZM202.2,40.24c-1.23,2.04-3.41,2.42-4.95,2.07-1.55-.35-6.11-2.07-8.04-13.94-1.93-11.87,3.51-12.36,3.51-12.36,6.85-.91,9.02,7.55,10.14,12.43,1.12,4.88.7,9.27-.67,11.79Z"/><path class="cls-2" d="M216.85,14.75v4.21l2.41-.67v24.15h-2.67v4.28h18.89v-4.25h-2.88v-20.11s2.56-3.23,6.56-3.23,3.41,4.46,3.41,5.09v18.25h-2.84v4.25h18.64v-4.35h-2.49v-22.57s.56-7.34-6.84-8.85c-7.41-1.51-12.32,1.9-16.22,5.48v-5.84l-15.96,4.16Z"/><polygon class="cls-2" points="277.04 10.59 260.94 15.15 260.94 19.13 263.65 18.38 263.65 42.39 260.94 42.39 260.94 46.73 279.47 46.73 279.47 42.34 277.04 42.38 277.04 10.59"/><path class="cls-2" d="M267.54.81s-4.37,1.63-4.3,5.79c.07,4.16,5.23,4.16,7.39,3.63,2.16-.53,6.55-1.69,7.02-5.3.47-3.62-2.84-4.63-4.65-4.88-1.81-.25-4.23.32-5.46.75Z"/><path class="cls-3" d="M323.19,7.17c0,2.47-2,4.47-4.47,4.47s-4.47-2-4.47-4.47,2-4.47,4.47-4.47,4.47,2,4.47,4.47Z"/><text class="cls-1" transform="translate(316.33 9.53)"><tspan x="0" y="0">R</tspan></text></g></g></svg>