<?xml version="1.0" encoding="UTF-8"?><svg id="Capa_2" xmlns="http://www.w3.org/2000/svg" viewBox="0 0 91.61 60"><defs><style>.cls-1{fill:#0d0e0f;fill-rule:evenodd;}</style></defs><g id="Capa_1-2"><path class="cls-1" d="m25.07,22.52c.15-.08.3-.15.38-.23.53-.15.75-.83,1.36-.75.53-.6,1.28-.68,1.88-1.2,0-.08.08-.15.23-.3.38-.3-.3-.53-.3-.53-.15-.23-.45,0-.45,0-.15.08-.3.23-.45.23-.08.3-.38.3-.6.45-.3.3-.68.53-1.05.75-.3.38-.75.45-1.05.75,0,0-.38.23-.53.6,0,0-.75.68.23.3l.38-.08h0Zm-.9,1.05c0,.08-.08.08-.08.08v.08c-.53.38-.83.83-1.13,1.28-.38.53-.68,1.05-1.28,1.43-.45,0-.68.45-1.05.6-.08,0-.15-.15-.15-.23,0,0-.23-.45-.15-.83.23-.08.45-.15.6-.3.23-.23.45-.45.68-.68.75-.6,1.43-1.36,2.11-1.96,0,0,.53-.3.45.53h0Zm-.15-1.51c-.83.3-1.81.3-2.41.9-.3.23-.83-.08-.98.3.08.08,0,.23,0,.3h-.3l.08.6c.75.08,1.13-.83,1.81-.9l.08.08v.23c-.08.08-.23-.15-.38,0-.38.38-.83.68-1.28.83-.08.08-.08.3-.23.3l-.08.83c.38.08.68-.23.98-.53.08-.08.15-.08.23-.15.68-.75,1.66-1.35,2.18-2.26,0,0,.23.15.3-.53h0Zm16.79-.15c.08,1.05-.38,1.81-1.13,2.63-.68.15-1.43.68-2.18.23-.45-.23-1.05.08-1.35-.45-.15-.08-.38-.08-.45-.23.08-.23.38-.3.53-.45.9.15,1.96.83,2.71.08.3-.15.83-.23.83-.68.08-.3.08-.6.38-.75.23,0,.3-.38.38-.6,0,0,0-.83.3-.68,0,0,.23.3,0,.53v.38h0Zm-6.32-4.14c-.3.23-.6.45-.68.6-1.13.38-2.33.6-3.39.08-.15-.23.23-.3,0-.6.08-.08.15-.15.3-.08.15.38.6.15.9.23.45.15.83-.15,1.2-.08.3-.15.45-.15.75-.3h.15s.9-.6.75.15Zm22.88-1.43c-.53-.45-.9.15-.9.15-.15.15-.3.3-.38.45-.68.3-.98,1.2-1.66,1.51-.38.38-.9.68-1.36,1.13-.9.3-2.03.38-2.94.83-.68.23-1.43.38-2.11.6-.83.6-1.81.75-2.56,1.28-.15.15-.45.23-.38.45.08.23.38.08.53.15.15.15.53.08.53.38-.23.15-.6.15-.53.45.3.23.68.38.98.53.45.3.98.6,1.43.75.83.38,1.73.68,2.56,1.05.68.15,1.43.23,2.03.53.75.23,1.58.53,2.41.68.53.23.08.68.15,1.05,0,.23-.23.45-.15.68-.38.6-.38,1.36-.38,2.11-.15.08-.08.23,0,.38-.15.38-.3.83-.38,1.28-.08,0-.08.07-.15.07-.08.68-.08,1.13-.15,1.73.38.15.83.08,1.2-.08-.23-.45.15-.83.08-1.36.15-.23.08-.53.15-.83.38-1.13.38-2.33.45-3.54,0-.15-.15-.3.08-.45l.15.08c-.08.45.08.9,0,1.28.23.83,0,1.73.15,2.63.53.3-.23.9.38,1.2-.08.23.08.45.23.53.23.08.53-.07.83-.38.08-.83-.38-1.36-.38-2.11-.23-.53-.08-.98-.38-1.43,0-.45-.23-.9-.23-1.36-.23-.15-.15-.6-.15-.83-.08-.45,0-1.13-.6-1.36-.98-.08-1.96-.53-2.94-.75-.6-.15-1.2-.45-1.81-.6l-.68-.23c-.53-.15-1.13-.23-1.66-.53-.08-.08-.23-.08-.38-.15,0,0-.08,0-.08-.08-.23-.08-1.5-.45-1.66-.6-.23-.38.15-.38.15-.38.08,0,1.13.53,1.2.53.23,0,.3.15.45.15.23.08.38.15.6.15.75.45,1.58.68,2.33.9.23.08.53.15.75.23.08.15.3.15.45.23.45.15,1.05.15,1.51.45.3-.15.53.23.75.23.53.3,1.13.08,1.58.45.38.6.23,1.36.53,2.03-.23.45.53.68.23,1.13.15.3.3.68.6.75.23.08.38,0,.53-.15,0-.38-.23-.6-.3-.9.07-.53-.38-.98-.3-1.51-.08-.3-.15-.75-.45-1.05-.23-.3-.6-.68-.38-1.13-.07-.15-.3,0-.45-.08-.38-.23-.9-.3-1.36-.38-.38-.23-.75-.38-1.2-.53-.45-.08-.9-.15-1.28-.23v-.08c-.45.23-.83-.38-1.28-.45-.3-.23-.83,0-1.13-.3-.3,0-.6-.08-.83-.23-.3,0-.83.08-.98-.3-.3-.15-.68-.15-.98-.23-.15,0-.23-.08-.3-.08,0-.08-.15-.08-.23-.08-.23,0-.53-.15-.45-.23s.6-.23.68-.23.15-.08.23-.08c1.05-.45,2.18-.75,3.24-1.28.75.08,1.5-.3,2.26-.3.9-.6,1.58-1.66,2.48-2.03.45-.38.75-1.28,1.36-.98.23-.08.38.08.6.08.15-.23.45-.45.38-.75.08-.23-.38-.68-.38-.68h0Zm-1.2-12.12c.08,0,.08.08.08.23,0,.9.08,1.96.38,2.86.3,1.2.53,2.33.83,3.61.08.53-.83.6-.6,1.13.08.53-.23.68-.53,1.05,0,0,.3.15.45.3,0,0,.23.53.83.3,0,0,.53-.15.45-.6,0-.38.08-.83.3-1.13-.15-.3.08-.68-.15-.98.08-.68-.3-1.28-.45-1.96,0-.45-.23-.83-.15-1.2-.3-1.13-.53-2.18-.68-3.39l.15-.23c.38-.08.45.45.75.53.15.53.75.75.98,1.2.9.83,1.66,1.66,2.33,2.56.98.9,1.88,1.66,2.63,2.71.3.23.68,0,.98.23.45-.3,1.36-.08,1.28-.9.08-.15.23-.15.38-.15.38.23.83,0,1.2-.15.98,0,1.96-.23,2.86-.45.23,0,.3-.15.23-.38-.08-.15-.15-.23-.38-.23-.9.23-1.88.6-2.94.53l-.08-.08c.08-.3.53-.08.75-.3.53,0,1.36-.15,1.96-.38.45-.45,1.13.3,1.36-.45.15-.3,1.13-.3.68-.75-.3-.08-.6-.15-.75.23-.6-.15-.9.45-1.51.45,0,0-.08-.08-.08-.15.68-.38,1.51-.53,2.18-1.05.08-.08,0-.23-.15-.23-1.05.3-1.96.83-2.94,1.2-.3.15-.53.53-.9.53-.53.3-1.2.38-1.66.9-.3.08-.53-.08-.75.08-.3-.15-.6-.38-.75-.68-.98-1.05-2.26-1.96-3.31-3.09-.9-.68-1.88-1.35-2.63-2.26l-.6-.45c-.15,0-.45,0-.6.23v.08h-.45c-.08-.08-.15-.08-.23-.15,0,0-.23.08-.45,0,0,0-.38-.15-.23.3,0,0,.08.3-.08.53h0Zm8.28,6.17c-.23.08-.15-.15-.3-.23-.68-.45-1.2-1.2-1.73-1.73-.3-.23-.53-.6-.9-.83-.98-.75-1.81-1.88-2.71-2.63-.23-.3-.53-.68-.83-.9-.08-.08,0-.23.08-.3.15,0,.38.08.3.23.75,1.05,1.81,1.43,2.71,2.78.23,0,.15.08.23.23,1.05,1.05,2.26,2.11,3.39,3.16,0,.15-.15.15-.23.23h0Z"/><path class="cls-1" d="m46.89,7.39c.45-.15,1.13-.68,1.5-.08l.08-.08c.15,0,.15.23.23.3s.08-.08.15-.08c0-.3.23-.45.45-.68.38-.15.75-.38,1.2-.45-.08-.23-.15-.3-.3-.38,0,.08-.15.15-.15.15-.45.08-.6.6-1.05.53l-.08-.23c.45-.3.6-.75.75-1.13-.15-.3-.53,0-.75-.08-.23-.3-.6-.38-1.05-.3-.38-.45-.75-1.05-1.36-1.05-.23-.23-.38-.45-.38-.75.15-.38.45.08.68.08,1.2.38,2.26,1.51,3.61,1.58.23.53.83.45,1.28.53.3.38.83.23,1.28.23.6.3,1.36.15,1.96.38.15.15.15.6.45.45.15.53.53.83.68,1.28.53.38.3,1.05.38,1.58.08.3-.08.6.23.9,0,.53-.3,1.05-.83,1.35-.23.53-.98.3-1.43.53-.38.3-.75.38-1.05.75-.23.45-.6.98-.45,1.51,0,.38-.08.68-.15.98-.08.45-.23.83-.23,1.28-.15.45,0,1.13-.6,1.28-.15-.08-.38-.08-.3-.3-.3-.15,0-.53-.3-.68l.15-.98c.08-.23.15-.38.23-.6.23-.83.3-1.73.9-2.41,0-.23-.23-.23-.38-.23l-1.28.98c-.38.45-.45,1.05-.53,1.66-.15.53-.23.98-.6,1.36-.08.6.3,1.28,0,1.81-.23.08-.53.3-.75.08-.45-.98-.08-2.11.3-2.94.08-.08.15-.23.23-.3.3-.6.3-1.51,1.05-1.81,0-.08,0-.23-.08-.3l-.53.3c-.23.15-.45.08-.68.23-.3.53-.68.98-.83,1.58-.68.9-.45,2.33-.75,3.46l-.3.3c-.15.08-.38.08-.45-.08-.23-.68.07-1.35.07-2.03.08-.53.15-1.05.53-1.43v-.23c.08-.53.68-.9.98-1.35l-.08-.23c-.23,0-.23.23-.38.38-.45.3-.75.75-1.05,1.2-.15.23-.3.45-.45.6-.45.6-.53,1.28-.75,1.96-.3.53.08,1.2-.38,1.58-.22.08-.46.08-.68,0-.15-.3,0-.68.08-.9.15-.53.08-1.2.15-1.66.33-.56.7-1.09,1.13-1.58l.68-.68v-.3c-.23-.08-.38.15-.53.3-.15.23-.38.45-.53.68-1.05,1.2-2.18,2.48-1.88,4.29-.23.23-.53.23-.75.3-.3-.08-.3-.45-.38-.68.3-.75.08-1.73.83-2.26-.08-.68.68-.9.9-1.43.15,0,.15-.15.3-.23,0,0,.08-.08.15,0,0-.3.15-.53.23-.75-.08-.08-.08-.23-.23-.15-.38.23-.75.53-1.13.9-.83.9-1.43,2.11-1.73,3.24-.15.45-.15,1.05-.45,1.43-.3,0-.6,0-.75-.15-.15-1.05.38-1.81.68-2.71.15-.23-.08-.6.15-.75.32-.31.6-.67.83-1.05.3-.3.9-.23.98-.68,0-.45-.75-.23-.75-.23-.15.15-.53.08-.53.08-.15-.08-.3,0-.3,0-.23.23-.83.3-1.13.38-.08.08-.15.15-.38.45-.23.38-.45.83-.23,1.28-.08.6-.15,1.13-.15,1.73.15.38.23.9.23,1.36v.53l.37.15s-.23.15-.3.53c-.23.3-.3.75-.45,1.05-.23.23-.38.53-.45.83,0,.68-.83.68-1.28.9-.75-.15-1.43-.15-2.11-.38-.38-.38-.9-.3-1.35-.53-.9-.08-1.58-.83-2.33-1.28-.68-.38-1.35-.75-2.03-1.28-.23-.15-.53-.23-.83-.3h-.08c-.45-.9-1.28-.68-1.28-.68-.08.08-.15.08-.23.15-.53.45-1.2.6-1.88.83-.15.08-.38.15-.53-.08.08-.53.53-.98.75-1.51,1.35-.53,2.78.15,3.99.75.53.38,1.05.83,1.66.98.83.53,1.66,1.2,2.56,1.66.53,0,.98.23,1.43.45.38.15.9.08,1.35.3.23,0,.53.15.68-.15.38-.68,1.28-.9,1.2-1.81.75-.9-.08-1.96,0-3.01.23-.23.23-.68.15-.98.15-.53.23-.98.38-1.51.08-.15.53-.53.38-.75-.45-.23-.68.75-1.05.6s.23-.45-.15-.68c0,0-.6.6-.9.83-.08.08-.08.15-.08.15h-.3c-.45.53-1.13.53-1.51,1.2-.3,0-.53.08-.75.23-.3.23-1.05.23-1.05.23-.45,0-.75.3-.75.3-.23.08-.45.15-.75.15-.53.38-1.2.15-1.81.15-.3,0-.08-.53-.45-.6-.23-.6-.45-1.2-.6-1.81-.08-.3-.08-.53-.15-.83-.6-.83-.15-2.03-.9-2.78-.3-.08-.45-.45-.53-.75-.38-.3-.3-.83-.68-1.05-.23-.68-.68-1.13-.98-1.73l-.15-.08c-.53.3-.3.98-.45,1.51-.23.3,0,.68,0,1.05-.08,1.05-.38,2.03-.53,3.09-.23.45-.08,1.13-.3,1.58-.08.08-.15.23-.23.3-.23.08-.45,0-.53-.15v-.15c.15-.98.23-1.96.23-2.94.3-.38.23-.9.38-1.28.08-.45.3-.98.08-1.28-.45.23-.53.75-.6,1.2-.23.68-.23,1.58-.75,2.18-.08.3-.15.6-.53.68-.53-.23.08-.75.08-1.2.53-.38.3-1.13.38-1.73.08-.68.75-1.13.9-1.81-.23-.23-.53.15-.83.08-.53,1.05-1.66.53-2.41,1.13-.38.45-.9.45-1.2.53-.23-.23-.23-.38,0-.83.3.08.68.08.9-.23.68-.08,1.2-.6,1.73-.98.45-.38,1.05-.38,1.51-.75.15,0,.45.08.45-.15-.53-.68.53-.3.68-.75.23-.6.9-.45,1.35-.68.15-.08.45-.15.6,0,.6.23.75.9.83,1.43-.08.15-.08.38-.38.3l-.45-.9c-.15.08-.3,0-.38.15-.15.38.3.3.38.53.08.6.6.68.9.9l.45.9c.38.75.83,1.58,1.13,2.41.53,1.13,1.05,2.41,1.28,3.76-.15.53.38.83.68,1.13.68.15,1.43-.15,1.81-.53.6-.15,1.2-.3,1.81-.53.53-.45,1.13-.68,1.66-1.28.08-.3.15-.53.08-.98-.08-.75-.53-.15-.75-.6-.3-.38.45-.38.15-.75-.45-.83-1.51-.6-2.18-1.05-.53-.45-.68-1.05-1.05-1.58-.3-.3-.68-.23-1.05-.3-.45-.15-.68-.83-1.28-.83-.6-.68-1.51-.9-2.11-1.58-.15-.08-.6-.08-.45-.38-.53-.45-1.2-.83-1.66-1.28-.23-.08-.45,0-.68-.15-.08-.6-.75-.45-1.13-.68-.38-.68-1.35-.38-1.58-1.13-.98,0-1.66-.6-2.48-.83-.3-.15-.6-.3-.83-.53,0,0-.08-.3.15-.6.6.38,1.2.6,1.81.9.38,0,.75.23,1.05.3,1.05.15,1.81,1.13,2.71,1.51.53-.15.75.45,1.2.6.38.15.6.6.98.68.45.45.98.6,1.43.9.38.45.75,1.28,1.43,1.13.53.23.75.75,1.13,1.05.53-.15.9.23,1.28.45.08.3.3.45.53.6.3.23.53.38.3.83.3.3.15-.38.53-.3.08,0,.08.08.08.15h.53c.38.3.68.75.98,1.2.15.23.38-.23.53.08.53.08.75.68,1.28.68.45-.08.98.08,1.43.23.38.08.3.45.53.68.45-.3.98-.3,1.58-.23.08,0,.15.08.23.15.45.23,1.13.23,1.13.23.23.08,1.05,0,1.05,0,.3-.08,1.05,0,1.05,0,.75-.15.98.08,1.05.23.08.08.15.08.23.23.15-.23.15-.53.45-.53,0,.08.08.08.08.08.08.08.15,0,.15-.08.53,0,.68-.53,1.13-.6.23-.08.38-.38.6-.3.45-.38.98,0,1.51-.15.9-.23,1.88-.23,2.56-.9.23-.08.6.08.75-.23.38-.08.75-.15,1.05-.38.53-.3.38-.9.53-1.36v-.38c-.23-.38,0-1.05-.45-1.35-.6.08-.6-.9-1.28-.83-.45.08-.9-.15-1.43-.08-.75.6-2.03.9-2.26,2.03-.23.15-.53.3-.38.68-.08.08-.23.23-.45.15-.3-.15-.15-.6-.23-.83.15-.23.15-.53.15-.75l-.15.08c-.3.23-.6.08-.75-.15-.45.3-.75.68-1.28.83-.38-.15-.75-.3-1.05-.53-.3.08-.53-.23-.75,0-.3-.3-.53-.75-.75-1.13h.08c-.15,0-.3-.15-.23-.23,0,0,.08-.08.15,0-.45-.53-.68-1.13-.68-1.73-.3-.53-.3-1.2-.6-1.73-.75-.83-.98-1.88-1.35-2.79.08-.3.3-.6.6-.53.53.45,1.2.45,1.73.75.08.15.3.38,0,.45-.3-.15-.83.23-1.05-.3-.16,0-.3.08-.38.23,0,.15.15.38.38.45.15.53.6.98.68,1.51.38.15.15.68.53.83-.15.3.15.53.08.9.3.15.23.6.53.83.23.83.68,1.66,1.43,2.03.15,0,.3-.08.45-.15h-.08s.3-.15.52-.15h0Z"/><path class="cls-1" d="m45.77,6.33s0-.08-.08-.08v-.23c.38-.53.6.15,1.05.08,0-.45-.3-.98-.83-1.2,0-.3-.53-.38-.6-.75-.3,0-.38-.45-.68-.38-.15.08-.45.15-.45.38.38.75.6,1.73,1.13,2.41,0,0,.75.38.45-.23h0Zm-9.86,39.14v4.07l2.48-4.07h-2.48Zm-.9,12.87c-.23.53-.45,1.13-.45,1.13-1.2.3-2.86.53-4.06.53-4.52,0-7.45-2.79-7.38-6.85.08-4.37,3.01-6.85,7.45-6.77,1.73,0,3.24.53,3.69.6h.45s-.08.6,0,1.2c.08.68.3,1.36.3,1.96,0,.15-.15-.08-.15-.08-.38-1.58-2.94-2.63-4.37-2.63-3.39,0-5.65,2.18-5.65,5.72.08,2.86,2.26,5.64,5.42,5.64,1.73,0,3.69-.45,4.82-1.88l.3.23s-.15.53-.38,1.2h0Zm17.69-6.17h2.94c.6,0,1.81.08,2.11,0,.23-.08.38-.3.45-.23.08,0,.08.08.08.08v1.88c-.08,0-.08-.08-.38-.23-.38-.08-1.66-.08-2.26-.08h-2.94v4.59h4.14c.6,0,1.28-.08,1.58-.15.23-.15.45-.38.53-.3.08,0,0,.08,0,.08,0,.45-.08.9-.15,1.51v.38h-7c-.6,0-.68.08-1.13.08,0,0-.08,0-.15-.08,0-.07.08,0,.23-.38.23-.38.23-1.05.23-1.66v-9.03c0-.6,0-1.28-.23-1.66-.15-.38-.23-.3-.23-.38.08-.08.15-.08.15-.08.45,0,.53.08,1.13.08h6.77v1.73s.08.08,0,.08c-.08.08-.23-.15-.45-.23-.3-.08-.98-.15-1.51-.15l-3.91-.08v4.22h0Zm-46.07-5.65s3.24,7.6,4.74,10.91c.38.9.83,1.73.98,1.88.3.38.38.38.38.38h-1.73c-.6,0-.9.08-.9,0,.15-.3.08-.68-.08-1.13-.08-.08-.3-.68-.38-.9-1.05-2.33-3.24-7.53-3.24-7.53-.15-.3-.08-.3-.23,0,0,0-2.18,5.19-3.24,7.53-.08.23-.3.83-.38.9-.15.45-.23.83-.08,1.13,0,.08-.23,0-.75,0H0l.3-.38c.15-.15.6-.98,1.05-1.88,1.43-3.31,4.74-10.91,4.74-10.91.15-.38.3-.38.53,0h0Zm36.88,1.58v9.48c0,.6,0,1.28-.15,1.66l-.23.38c0,.07.15.07.15.07.45,0,.53-.07,1.2-.07.53,0,.68.07,1.13.07,0,0,.08,0,.08-.07s-.15-.15-.23-.45c-.15-.23-.15-.98-.15-1.58v-9.48h1.88c.6,0,1.66.08,1.88.15.3.08.38.3.45.23.07,0,.07-.08.07-.08v-1.81h-10.76c0,.53-.08,1.43-.08,1.88,0,0-.08.08,0,.08.08.07.23-.15.45-.23.3-.08,1.43-.23,2.03-.23h2.26Zm31.31,5.19v3.61c0,.6-.08,2.03-.23,2.41-.15.3-.23.3-.23.38s.15,0,.15,0h2.41s.08.08.08,0c.08-.07-.15-.23-.23-.45-.08-.3-.15-1.05-.15-1.58v-4.37s3.99-6.25,4.29-6.32c.45-.08.6-.38.6-.38h-1.66c-.6,0-1.2-.08-1.2,0,.15.3.08.6-.15,1.05-.23.38-2.48,3.91-2.63,4.07-.15-.15-2.48-3.61-2.71-4.07-.3-.38-.3-.75-.23-1.05.08,0-.75.08-1.36.08-.53,0-1.73-.08-1.73-.08,0,0,.15,0,.53.38.38.3,4.44,6.32,4.44,6.32h0Z"/><path class="cls-1" d="m86.71,53s4.07,6.02,4.44,6.32c.38.38.45.38.45.38,0,0-1.13-.07-1.66-.07-.6,0-1.43.07-1.43.07.15-.3.08-.68-.15-1.05-.23-.45-2.48-3.91-2.63-4.06-.15.15-2.41,3.61-2.63,4.06-.23.38-.3.75-.15,1.05,0,0-.68-.07-1.28-.07-.53,0-1.73.07-1.73.07,0,0,.15,0,.53-.38.38-.3,4.37-6.17,4.37-6.17,0,0-3.84-5.95-4.37-6.25-.45-.23-.38-.3-.38-.3h1.58c.6,0,1.43-.08,1.36,0-.08.3-.08.68.23,1.05.23.38,2.41,3.76,2.56,3.91.15-.15,2.33-3.46,2.56-3.84.3-.45.3-.83.23-1.13,0-.08.75,0,1.35,0h1.58s-.3.15-.6.45c-.38.3-4.22,5.95-4.22,5.95h0Zm-21.9.75s3.24,4.67,3.54,5.04c.3.53.98,1.13,2.03,1.13h1.05s-.08-.08-.45-.38c-.68-.6-3.99-5.34-3.99-5.34,1.43-.6,3.01-1.58,2.94-3.76-.08-3.16-2.26-3.99-5.57-3.84h-1.81c-.6,0-.83-.08-1.28-.08,0,0-.08,0-.15.08,0,.08.15.15.15.15.3.38.3,2.18.3,2.79v8.05c0,.6,0,1.36-.15,1.73q-.23.3-.23.38c0,.08.08,0,.08,0h2.41s.08.08.15,0c0-.07-.15-.23-.3-.45-.08-.3-.15-1.05-.15-1.66v-9.48c0-.6.3-.68,1.05-.68,2.56,0,3.69,1.28,3.69,3.16,0,2.03-1.13,3.01-3.31,3.16h0Zm-48.32,0s3.31,4.67,3.54,5.04c.38.53.98,1.13,2.11,1.13h.98l-.38-.38c-.68-.6-3.99-5.34-3.99-5.34,1.43-.6,3.01-1.58,2.94-3.76-.15-3.16-2.26-3.99-5.57-3.84h-1.81c-.68,0-.83-.08-1.36-.08,0,0-.08,0-.08.08-.08.08.15.15.15.15.23.38.23,2.18.23,2.79,0,1.2.08,7.15.08,8.05,0,.6-.08,1.36-.23,1.73-.15.3-.23.3-.23.38.08.08.15,0,.15,0h2.33s.15.08.15,0-.15-.23-.23-.45c-.15-.3-.15-1.05-.15-1.66v-9.48c0-.6.3-.68,1.05-.68,2.48,0,3.61,1.28,3.69,3.16,0,2.03-1.13,3.01-3.39,3.16h0Zm17.99-4.44s.6,1.05.45.08c-.23-1.58.23.83.23.83l-.3.08-.38-.98h0Z"/></g></svg>