<?xml version="1.0" encoding="UTF-8"?><svg id="Capa_2" xmlns="http://www.w3.org/2000/svg" viewBox="0 0 233.03 60"><defs><style>.cls-1{fill:#1a171b;stroke-width:0px;}</style></defs><g id="Capa_2-2"><g id="outwell-logo"><path class="cls-1" d="M24.93,12.23c2-1.77,3.8-2.48,5.1-2.39,1.7.18,2,.89,2.5,2.66.2.62.4,1.24.7,1.95,6.4,15.95,25,12.14,25.2,12.05,0,0,.9-.18,2.1-.62.2-.09.4-.27.4-.53,0-.18-.2-.35-.5-.35-3.5-.18-8-1.6-14.7-10.81l-.5-.71c-2.6-3.63-4.7-6.47-11.6-6.03-3,.18-5.2,1.15-7.2,1.95-1.2.53-2.4.97-3.6,1.24-3.2.71-5.2.62-6.9.53-.4,0-.7,0-1-.09-7-.27-10.8-3.28-12.5-9.75-.1-.18-.3-.35-.5-.35-.3,0-.5.18-.6.35C1.03,1.95.33,3.63.13,5.32c-.8,7.36,2.2,11.96,8.3,12.58,2.4.53,9.3.53,16.5-5.67ZM233.03,5.05c0-1.42-.6-2.66-1.7-3.63-1.1-.97-2.5-1.42-4-1.42-1.6,0-3,.53-4.1,1.51s-1.7,2.22-1.7,3.63.6,2.57,1.7,3.55c1.1.97,2.5,1.51,4,1.51,1.6,0,2.9-.44,4-1.42,1.2-1.06,1.8-2.22,1.8-3.72ZM227.33,9.57c-1.4,0-2.5-.44-3.4-1.33s-1.4-1.95-1.4-3.1c0-1.24.5-2.3,1.4-3.19s2.1-1.33,3.4-1.33,2.4.44,3.4,1.33c.9.89,1.4,1.95,1.4,3.1,0,1.24-.5,2.3-1.5,3.19-.9.89-2.1,1.33-3.3,1.33ZM181.43,6.03c.5.71.8,1.86.8,3.46v44.76c0,1.24,1.7,2.48,5.1,3.72,3.4,1.24,6.9,1.86,10.4,1.86,7,0,12.7-2.13,17-6.38,4.3-4.25,6.4-9.39,6.4-15.33,0-5.58-1.7-10.1-5-13.65-3.3-3.46-7.3-5.23-12-5.23-3.8,0-7.2,1.06-10.1,3.19-1.7,1.24-2.9,2.48-3.7,3.81V.53c0-.18,0-.35-.1-.53-.2,0-1.8.44-4.7,1.33-2.9.89-6.2,1.68-9.8,2.48v1.42l2.2-.18c1.8,0,3,.35,3.5.97ZM190.13,31.29c0-1.86,1.1-3.46,3.2-4.7,2.2-1.24,4.4-1.86,6.6-1.86,4.5,0,7.7,1.77,9.7,5.32s3,7.44,3,11.7-1.1,7.8-3.2,10.72c-2.1,2.92-5.4,4.43-9.9,4.43-1.7,0-3.6-.35-5.8-.97s-3.4-1.68-3.7-3.19v-21.45h.1ZM170.93,54.77c-1.3,0-2.2-.53-2.6-1.68-.3-.62-.4-1.77-.4-3.37v-16.93c0-3.72-.6-6.56-1.8-8.51-2.2-3.55-6.4-5.32-12.6-5.32-5.3,0-9.4,1.06-12.1,3.28-2.8,2.13-4.1,4.25-4.1,6.2,0,.97.4,1.95,1.1,2.75.8.8,1.9,1.24,3.3,1.24.9,0,1.7-.18,2.4-.53,1.2-.62,1.8-1.68,1.8-3.28,0-.27-.1-.71-.2-1.51-.2-.8-.2-1.42-.2-1.68,0-1.33.7-2.39,2.2-3.1s3-1.06,4.6-1.06c3.4,0,5.6.97,6.7,2.84.6,1.15,1,3.1,1,6.03v3.63c-8.8,2.92-14.6,5.23-17.5,6.91-4.6,2.75-6.9,6.12-6.9,10.28,0,2.66,1,4.79,3,6.47s4.4,2.57,7.1,2.57,5.4-.8,8.3-2.3c1.7-.89,3.8-2.3,6.2-4.17.1,1.68.6,3.19,1.6,4.43s2.5,1.86,4.7,1.86c1.8,0,3.7-.53,5.4-1.6,1.2-.71,2.3-1.6,3.3-2.75v-2.22c-1.2.8-2,1.24-2.5,1.42-.5,0-1.1.09-1.8.09ZM160.03,49.01c0,1.6-1,2.92-2.9,3.99-1.9,1.06-3.9,1.6-6,1.6-1.5,0-2.9-.35-4.2-1.15-1.9-1.24-2.9-3.1-2.9-5.67,0-3.19,2.3-6.03,6.9-8.51,2.4-1.33,5.4-2.48,9.1-3.55v13.29h0ZM228.23,5.23c.9-.27,1.3-.8,1.3-1.51,0-.44-.2-.8-.6-.97-.4-.27-.9-.35-1.4-.35h-3v.27c.4,0,.6.09.7.18.1.09.1.27.1.53v3.63c0,.27,0,.44-.1.53s-.3.09-.7.18v.27h2.7v-.27c-.4,0-.6-.09-.7-.18-.1-.09-.1-.27-.1-.53v-1.51h.9c.4.53.8,1.15,1.2,1.68.3.44.6.71.8.71h1.1v-.27c-.5-.44-.9-.8-1.1-1.06l-1.1-1.33ZM227.13,5.14h-.7v-2.48h.7c.9,0,1.3.35,1.3,1.15s-.4,1.33-1.3,1.33ZM95.03,57.52c-3.7-.27-6.1-.89-7.2-1.68-1.1-.89-1.6-2.92-1.6-6.12v-17.1l5.4-.18,23.3,26.59h15.8v-1.6c-1.9-.18-3.5-.53-4.8-1.15-1.2-.62-2.5-1.6-3.7-2.92l-20.1-21.98c5.4-.71,9.7-2.22,12.9-4.61,3.2-2.3,4.7-5.67,4.7-9.93,0-6.47-3.6-10.81-10.7-13.21-3.8-1.24-8.5-1.86-14.1-1.86h-27.1v1.6c3.5.27,5.8.89,6.9,1.77,1,.97,1.6,2.92,1.6,6.03v37.58c0,3.63-.5,5.94-1.4,6.91-.9.97-3.3,1.6-7,1.95v1.42h27.2v-1.51h-.1ZM86.23,8.06c0-1.33.3-2.13.9-2.48.6-.35,2.3-.53,5.1-.53,4.1,0,7.4.53,9.9,1.51,4.6,1.86,7,5.23,7,10.28s-2.6,8.77-7.8,10.64c-3,1.06-8.1,1.68-15.1,1.95,0,0,0-21.36,0-21.36ZM66.93,47.06c-3.5-.18-8-1.6-14.7-10.81l-.5-.71c-2.6-3.63-4.7-6.47-11.6-6.03-3,.18-5.2,1.15-7.2,1.95-1.2.53-2.4.97-3.6,1.24-3.2.71-5.2.62-6.9.53-.4,0-.7,0-1-.09-7-.27-10.8-3.28-12.5-9.75-.1-.18-.3-.35-.5-.35-.3,0-.5.18-.6.35-.3.62-1,2.3-1.2,3.99-.8,7.36,2.2,11.88,8.3,12.58,2.6.27,9.5.35,16.7-5.85,2-1.77,3.8-2.48,5.1-2.39,1.7.18,2,.89,2.5,2.66.2.62.4,1.24.7,1.95,6.4,15.86,25.1,12.05,25.3,11.96,0,0,.9-.18,2.1-.62.2-.09.4-.27.4-.53-.4.09-.6-.09-.8-.09Z"/></g></g></svg>