<?xml version="1.0" encoding="UTF-8"?><svg id="Capa_2" xmlns="http://www.w3.org/2000/svg" viewBox="0 0 329.5 60"><defs><style>.cls-1{fill:#1a171b;}</style></defs><g id="Capa_1-2"><path class="cls-1" d="m43.13,25.29s-3.09-2.76-.94-5.58c2.15-2.82,4.86-4.7,7.73-1.82s9.39,9.34,9.39,9.34c0,0,2.21,2.87-.28,5.36s-4.81,3.98-7.68,1.05c-2.87-2.93-8.23-8.34-8.23-8.34Z"/><path class="cls-1" d="m34.79,33.58s-3.09-2.76-.94-5.58c2.15-2.82,4.86-4.7,7.73-1.82s9.39,9.34,9.39,9.34c0,0,2.21,2.87-.28,5.36s-4.81,3.98-7.68,1.05-8.23-8.34-8.23-8.34Z"/><path class="cls-1" d="m10.15,25.52s-3.09-2.76-.94-5.58c2.15-2.82,4.86-4.7,7.73-1.82,2.87,2.87,9.39,9.34,9.39,9.34,0,0,2.21,2.87-.28,5.36s-4.81,3.98-7.68,1.05-8.23-8.34-8.23-8.34Z"/><path class="cls-1" d="m1.7,33.86s-3.09-2.76-.94-5.58,4.86-4.7,7.73-1.82,9.39,9.34,9.39,9.34c0,0,2.21,2.87-.28,5.36s-4.81,3.98-7.68,1.05S1.7,33.86,1.7,33.86Z"/><path class="cls-1" d="m26.75,34.4s2.76-3.09,5.58-.94c2.82,2.15,4.7,4.86,1.82,7.73-2.87,2.87-9.34,9.39-9.34,9.39,0,0-2.87,2.21-5.36-.28-2.49-2.49-3.98-4.81-1.05-7.68,2.93-2.87,8.34-8.23,8.34-8.23Z"/><path class="cls-1" d="m34.98,42.91s2.76-3.09,5.58-.94,4.7,4.86,1.82,7.73c-2.87,2.87-9.34,9.39-9.34,9.39,0,0-2.87,2.21-5.36-.28-2.49-2.49-3.98-4.81-1.05-7.68,2.93-2.87,8.34-8.23,8.34-8.23Z"/><path class="cls-1" d="m26.75,1.7s2.76-3.09,5.58-.94,4.7,4.86,1.82,7.73c-2.87,2.87-9.34,9.39-9.34,9.39,0,0-2.87,2.21-5.36-.28-2.49-2.49-3.98-4.81-1.05-7.68,2.93-2.87,8.34-8.23,8.34-8.23Z"/><path class="cls-1" d="m34.98,10.21s2.76-3.09,5.58-.94,4.7,4.86,1.82,7.73c-2.87,2.87-9.34,9.39-9.34,9.39,0,0-2.87,2.21-5.36-.28-2.49-2.49-3.98-4.81-1.05-7.68,2.93-2.87,8.34-8.23,8.34-8.23Z"/><path class="cls-1" d="m107.76,19.6s-.72-12.54-12.7-12.43-18.45,9.34-18.56,21.27,9.17,20.83,18.01,20.77,15.91-7.73,15.91-7.73l1.38,1.99-2.65,6.79s-12.98,5.58-26.35,1.55c-13.37-4.03-22.48-19.39-14.53-34.19C76.22,2.81,98.04.33,111.13,7.18c0,6.35-.06,12.48-.06,12.48l-3.31-.06Z"/><path class="cls-1" d="m135.32,20.88c-6.79-1.05-20.11-.28-21.65,14.86-1.55,15.14,11.66,18.12,17.57,17.9,0,0,12.15.17,16.07-11.38,3.92-11.54-5.19-20.33-11.99-21.38Zm3.48,21.27c-.44,3.04-2.32,7.73-7.62,8.01s-7.02-3.42-7.02-3.42c-1.93-3.92-2.21-10.72-.88-15.96,1.33-5.25,4.53-6.74,6.74-6.96,2.21-.22,5.36.17,7.35,4.6,1.99,4.44,1.88,10.7,1.44,13.74Z"/><path class="cls-1" d="m148.58,6.35v1.71s3.31,1.27,3.31,5.25v39.99h10.94v-2.43s-2.87-.55-2.93-4.75c-.06-4.2,0-40.99,0-40.99,0,0-.06-1.22-2.04-.83-1.99.39-9.28,2.04-9.28,2.04Z"/><path class="cls-1" d="m164.38,22.92v1.77s3.2.77,3.2,4.81v16.57s-.28,8.14,8.23,7.91c6.9-.23,11.49-4.43,11.49-4.43v3.76h11.43v-2.54s-3.31-.33-3.42-3.26c-.11-3.65.06-25.35.06-25.35,0,0,.22-1.88-2.71-1.22s-8.73,1.99-8.73,1.99l.11,1.82s3.31,1.27,3.31,4.7v16.07s-3.26,3.2-7.13,3.15-4.53-4.03-4.53-7.29v-19.44s.33-1.44-1.82-1.03c-2.15.42-9.5,2.02-9.5,2.02Z"/><path class="cls-1" d="m200.86,22.85v1.7s3.4,1.53,3.4,5.55v23.08h11.31v-2.32s-3.31-.25-3.31-3.85-.04-18.77-.04-18.77c0,0,1.95-2.2,6.01-1.86s3.85,5.3,3.85,7.21v19.6h11.39v-2.4s-3.34-.5-3.34-3.79-.23-18.83-.23-18.83c0,0,4.23-3.19,7.25-1.45,2.57,1.62,2.57,5.43,2.57,5.43v21.05h11.27v-2.32s-3.36-.33-3.36-4.27v-16.7s.17-5.14-4.14-7.75-9.86-1.49-14.83,3.44c-2.28-4.35-6.21-5.55-10.11-4.47s-6.26,3.6-6.26,3.6v-2.94s-.08-1.31-2.03-.98c-1.95.32-9.4,2.06-9.4,2.06Z"/><path class="cls-1" d="m274.4,20.94c-5.84-1.04-12.47,3.02-12.47,3.02V5.37s-.08-1.37-1.78-1.08-9.53,1.82-9.53,1.82v1.91s3.4.87,3.4,6.13-.08,36.58-.08,36.58c0,0,5.68,3.48,13.96,2.57s14.25-4.97,16.86-13.22c2.61-8.24-1.45-17.03-10.36-19.14Zm3.07,16.01c-.08,5.37-2.9,12.9-9.03,13.19-6.13.29-6.42-7.21-6.42-7.21v-15.29c10.36-5.39,15.54,3.94,15.45,9.3Z"/><path class="cls-1" d="m286.33,22.6v2.03s3.4.79,3.44,5.47,0,23.03,0,23.03h11.27v-2.36s-3.15-.41-3.15-3.36v-25.44s.12-1.49-1.37-1.28-10.19,1.91-10.19,1.91Z"/><circle class="cls-1" cx="293.35" cy="10.71" r="4.21"/><path class="cls-1" d="m327.47,45.51c0-4.02.04-15.7.04-15.7,0,0-.33-8.57-7.33-8.89-7-.31-10.03,2.8-11.68,4.16s-5.34,4.31-5.34,4.31c0,0-1.04.75-.04,1.91.41.46,1.04.79,1.04.79h6.84s-.33-4.18,1.12-5.39,6.05-3.27,7.21,1.33c.63,3.36.5,5.88.5,5.88l-14.09,6.21s-1.53.5-1.82,2.4-1.78,8.04,5.55,10.32c7.33,2.28,20.05-1.37,20.05-1.37v-1.86s-2.03-.08-2.03-4.1Zm-7.71,3.4s-3.23,2.15-5.51.95-3.15-3.15-3.02-5.59,1.41-2.73,3.44-3.98,5.1-2.82,5.1-2.82v11.43Z"/></g></svg>