<?xml version="1.0" encoding="UTF-8"?><svg id="Capa_2" xmlns="http://www.w3.org/2000/svg" viewBox="0 0 118.82 60"><defs><style>.cls-1{fill:#fff;stroke-width:0px;}</style></defs><g id="Capa_1-2"><path class="cls-1" d="m109.26,5.41c0-2.32,1.89-4.21,4.21-4.21s4.21,1.89,4.21,4.21-1.89,4.21-4.21,4.21-4.21-1.89-4.21-4.21m4.16,5.37c2.98,0,5.39-2.41,5.39-5.39s-2.41-5.39-5.39-5.39-5.39,2.41-5.39,5.39,2.41,5.39,5.39,5.39"/><path class="cls-1" d="m111.83,3.05h1.96c1,0,1.59.59,1.59,1.43,0,1.05-.71,1.3-.93,1.39l1.05,1.89h-1.02l-.91-1.73h-.84v1.73h-.89V3.05h0Zm.89,2.21h.96c.45,0,.77-.27.77-.71s-.3-.71-.91-.71h-.84v1.41h.02Z"/><polygon class="cls-1" points="60.02 5.41 67.05 5.41 67.05 24.13 84.5 24.13 84.5 5.41 102.74 5.41 102.74 60 84.43 60 84.43 40.92 66.98 40.92 66.98 60 49.45 60 60.02 5.41"/><polygon class="cls-1" points="42.69 60 35.66 60 35.66 41.28 18.22 41.28 18.22 60 0 60 0 5.41 18.29 5.41 18.29 24.52 35.73 24.52 35.73 5.41 53.36 5.41 42.69 60"/></g></svg>