<?xml version="1.0" encoding="UTF-8"?><svg id="Capa_2" xmlns="http://www.w3.org/2000/svg" viewBox="0 0 218.82 60"><defs><style>.cls-1{fill:#1a171b;stroke-width:0px;}</style></defs><g id="Capa_1-2"><path class="cls-1" d="m216.68,57.49c.04.07.06.11.06.14,0,.09-.05.12-.2.12h-.16q-.15,0-.23-.13l-.84-1.46h-.21l-.17,1.4c-.02.18-.03.19-.21.19h-.17c-.16,0-.2-.03-.2-.12,0-.02,0-.06,0-.09l.43-3.47c.02-.17.03-.19.21-.19h.57c.45,0,.7.06.9.23.23.2.37.52.37.87,0,.33-.12.63-.34.84-.16.15-.32.23-.63.3l.82,1.38Zm-1.51-1.84h.26c.35,0,.52-.05.66-.2.11-.12.18-.3.18-.48,0-.23-.12-.42-.3-.5-.09-.03-.24-.06-.41-.06h-.24l-.15,1.24Zm.43-3.07c-1.78,0-3.23,1.44-3.23,3.23s1.44,3.23,3.23,3.23,3.23-1.44,3.23-3.23-1.44-3.23-3.23-3.23Zm0,6.02c-1.54,0-2.8-1.25-2.8-2.8s1.25-2.8,2.8-2.8,2.8,1.25,2.8,2.8-1.25,2.8-2.8,2.8ZM126.75,25.66c-.18.12-2.6,1.69-4.11,2.26-1.51.58-3.64,1.05-5,1.3-.73.13-3.79.55-3.82.55-.79.13-1.66.26-2.76.41-1.36.19-3.03.43-5.24.78l-.68.12c-4.66.79-5.63.96-9.31,2.34-1.81.66-2.82,1.18-3.51,1.52l-.17.09c-.25.14-.64.37-1.16.67-.94.56-2.5,1.44-3.84,2.11-.58.29-.92.37-1.71.22-.79-.18-1.06-.4-1.47-.9-.96-1.16-2.02-2.6-2.65-3.49-.35-.48-.62-.85-.79-1.09l-.12-.15c-.49-.6-1.21-1.48-2.59-2.82-2.8-2.75-3.62-3.31-7.55-5.92l-.57-.38c-1.88-1.22-3.3-2.12-4.46-2.84-.94-.59-1.69-1.06-2.35-1.5-.02-.02-2.65-1.64-3.26-2.06-1.15-.78-2.9-2.07-4.04-3.22-1.14-1.13-2.72-3.55-2.83-3.73-.12-.2.1-.48.29-.62.1-.08.34-.18.53-.14.07.02.12.05.17.09.04.06.17.21.34.42.55.67,1.69,2.06,2.5,2.89,1.62,1.66,4.06,3.14,4.99,3.7.15.09.27.17.33.2.38.25,1.82,1.04,2.42,1.35,1.51.77,3.32,1.58,4.97,2.22,1.77.68,3.45,1.32,4.75,1.99l.21.11c1.86.9,4.88,3.08,5.58,3.65,1.16.94,4.56,2.84,5.58,3.38.29.18.92.48,1.8.68.89.17,1.58.15,1.92.11,1.16-.08,5.03-.43,6.48-.82.87-.23,4.51-1,6.58-1.06h.24c1.46-.09,3.25,0,5.15.1,1.77.08,3.75.08,5.44,0,.67-.04,2.3-.17,2.76-.25.07,0,.21-.03.39-.05,1.07-.13,3.9-.49,6.06-1.35,1.08-.43,2.69-1.23,3.46-1.62.24-.12.42-.21.48-.24.06-.02.12-.03.19-.02.19.04.36.23.42.34.11.2.2.55,0,.68Zm83.65,31.19l-9.84-54.29c-.17-.92-.97-1.59-1.9-1.59h-13.17c-2.36,0-2.58.06-3.35,1.39l-.41.79-24.32,42.57-9.67-15.21,20.62-25.44c.94-1.14,1.27-1.96,1.27-2.57,0-1.14-.58-1.53-3.13-1.53h-10.85c-1.64,0-1.79.1-3.14,1.74l-19.15,23.51,3.96-21.85q.25-1.22.27-1.57c.09-1.49-.59-1.83-3.12-1.83h-8.77c-2.88,0-3.07.08-3.58,2.88l-3.59,19.98c-1.22-14.44-12.13-23.82-28.45-23.82-12.33,0-22.63,5.3-28.66,13.91.35.23.72.46,1.11.69.18.11.31.19.38.23.01,0,.02.01.03.02.26.17,1.57.9,2.23,1.24,1.44.73,3.19,1.51,4.79,2.14l.12.05c1.77.68,3.44,1.33,4.8,2.02l.19.1s.04.02.06.03c3.15-3.79,8.01-6.11,13.63-6.11,7.85,0,13.26,4.59,14.29,11.78,1.33-.03,2.85.05,4.44.13h.14c1.71.09,3.62.08,5.24,0,.74-.04,2.23-.17,2.53-.22.01,0,.02,0,.04,0,.07-.01.23-.03.43-.06,2.4-.29,4.27-.7,5.58-1.23,1.01-.4,2.56-1.18,3.31-1.55.13-.06.24-.12.34-.17l.1-.05c.06-.03.11-.06.17-.08.41-.17.87-.21,1.31-.12.85.19,1.45.79,1.73,1.29.66,1.18.42,2.53-.57,3.22-.03.02-2.72,1.79-4.53,2.48-1.99.76-4.6,1.26-5.35,1.39-.51.09-1.94.29-3.39.5-.23.03-.4.06-.45.06-.78.13-1.68.26-2.8.42-1.31.19-2.95.42-5.18.77l-.66.12c-1.15.19-2.07.35-2.85.49-1.92,7.38-8.26,12.21-16.52,12.21-9.39,0-15.31-6.21-14.77-15.43.06-1.11.23-2.18.48-3.21-.7-.49-1.54-1.04-2.63-1.76l-.57-.38c-1.89-1.22-3.29-2.11-4.43-2.82-.96-.6-1.72-1.08-2.38-1.52-.05-.03-.19-.12-.39-.25-1.25-.78-2.46-1.54-2.9-1.83-.63-.43-2.82-1.94-4.33-3.46-1.39-1.37-3.1-4.07-3.12-4.09-.63-1.04-.3-2.37.78-3.18.46-.34,1.25-.65,2.08-.48.47.11.87.33,1.18.65.05.05.09.1.13.16l.06.08c.07.08.15.18.25.3.52.64,1.63,1.98,2.38,2.75.51.52,1.17,1.08,1.97,1.67l1.54-8.51.21-1.57c.18-1.43-.59-1.83-3.12-1.83h-9.05c-2.88,0-3.07.08-3.58,2.88l-3.25,18.27h-20.88l3.22-17.74q.25-1.22.27-1.57c.09-1.49-.59-1.83-3.12-1.83h-8.99c-2.88,0-3.07.08-3.58,2.88L.19,55.68l-.18,1.57c-.09,1.49.59,1.78,3.03,1.78h8.99c2.88,0,3.07-.03,3.58-2.83l3.86-21.24h20.88l-3.74,20.72c-.23.87-.25,1.22-.27,1.57-.09,1.49.85,1.78,3.38,1.78h8.75c2.88,0,3.07-.03,3.58-2.83l3.72-20.51c1.33,14.66,12.77,24.31,29.7,24.31,10.89,0,19.78-4.06,25.75-11.67,1.62-2.07,3.03-4.45,4.17-6.99l-2.57,14.34-.18,1.57c-.17,1.49.5,1.78,2.95,1.78h8.77c2.88,0,3.07-.03,3.58-2.83l4.21-23.15c.89,2.01,1.7,3.61,3.93,7.51l10.13,16.7c1.06,1.71,1.19,1.79,2.85,1.78h15.37c2.45,0,2.63.05,3.44-1.43l.41-.79,4.38-8.3h20.4l1.25,9.12c.11.8.79,1.39,1.6,1.39h12.67c1.16,0,2.03-1.05,1.83-2.19Zm-31.36-19.96l9.26-18.5,2.53,18.5h-11.79Z"/></g></svg>