<?xml version="1.0" encoding="UTF-8"?><svg id="Capa_2" xmlns="http://www.w3.org/2000/svg" viewBox="0 0 98.47 58.76"><defs><style>.cls-1{fill:#fff;stroke-width:0px;}</style></defs><g id="Capa_2-2"><g id="g10"><g id="g3393"><g id="g3372"><g id="g3348"><path id="path218" class="cls-1" d="M0,45.82v-9.16h4.13l3.27,5.72,3.33-5.72h4.07v9.16h-2.71v-6.53l-3.78,6.53h-1.83l-3.76-6.53v6.53H0h0Z"/><path id="path230" class="cls-1" d="M21.04,45.93h3.28c1.66,0,2.81-.07,3.57-.64.71-.54.98-1.41.98-2.77v-2.56c0-1.36-.29-2.24-.98-2.77-.73-.56-1.89-.64-3.57-.64h-3.29c-1.68,0-2.81.09-3.56.64-.76.57-.99,1.47-.99,2.89v2.49c0,1.32.25,2.17.99,2.72.78.58,1.93.64,3.57.64M21.79,43.64c-1.78,0-2.47-.28-2.47-1.73v-1.27c0-1.55.65-1.8,2.46-1.8h1.79c1.78,0,2.46.26,2.46,1.75v1.3c0,1.49-.68,1.75-2.46,1.75h-1.78Z"/><path id="path234" class="cls-1" d="M33.33,36.65v5.43c0,1.35.53,1.56,2.26,1.56h1.59c1.44,0,1.98-.26,1.98-1.56v-5.43h2.8v6.3c0,2.27-1.17,2.97-3.88,2.97h-3.13c-3.25,0-4.41-.67-4.41-2.97v-6.3h2.8Z"/><path id="path238" class="cls-1" d="M52.08,45.82l-5.5-6.67v6.67h-2.8v-9.16h4.15l5.45,6.72v-6.72h2.79v9.16h-4.1Z"/><path id="path242" class="cls-1" d="M61.2,45.82v-6.92h-3.83v-2.24h10.46v2.24h-3.83v6.92h-2.8Z"/><path id="path246" class="cls-1" d="M69.8,45.82l.89-1.52h5.58l.88,1.52h3.08l-4.92-9.16h-3.56l-5.01,9.16h3.05ZM71.76,42.09l1.74-3.24,1.78,3.24h-3.51Z"/><path id="path248" class="cls-1" d="M81.28,36.65h2.8v9.16h-2.8v-9.16Z"/><path id="path252" class="cls-1" d="M94.37,45.82l-5.49-6.67v6.67h-2.8v-9.16h4.15l5.46,6.72v-6.72h2.79v9.16h-4.1Z"/></g><g id="g3358"><path id="path256" class="cls-1" d="M7.98,52.9v-1.21H3.61v6.25h1.2s3.17,0,3.17,0v-1.21h-2.83v-1.43h2.83v-1.2h-2.83v-1.21h2.83Z"/><path id="path260" class="cls-1" d="M72.57,52.9v-1.21h-4.38v6.25h1.21s3.17,0,3.17,0v-1.21h-2.83v-1.43h2.83v-1.2h-2.83v-1.21h2.83,0Z"/><path id="path264" class="cls-1" d="M30.67,55.82v-4.14h-1.62v4.19c0,.21,0,.94-1.02.94s-.98-.98-.98-.98v-4.14h-1.62v4.19s-.13,2.39,2.65,2.39,2.61-2.44,2.61-2.44"/><path id="path266" class="cls-1" d="M38.75,58.03h-1.78v-6.34h1.78v6.34Z"/><path id="path270" class="cls-1" d="M56.99,57.97h-1.52l.22-6.12,2.95,2.79,2.85-2.86.32,6.19h-1.52l-.09-2.63-1.43,1.39-1.65-1.46-.13,2.7h0Z"/><path id="path274" class="cls-1" d="M80.17,57.94h-1.59v-6.25l3.93,3.14v-3.14h1.52v6.47l-3.84-3.04-.03,2.82h0Z"/><path id="path278" class="cls-1" d="M94.86,51.69h-5.11v1.36h1.68v4.86h1.59v-4.86h1.84v-1.36Z"/><path id="path282" class="cls-1" d="M17.07,56.63c-.98,0-1.77-.79-1.77-1.78s.79-1.77,1.77-1.77,1.78.79,1.78,1.77-.79,1.78-1.78,1.78M17.02,51.59c-1.81,0-3.27,1.46-3.27,3.27s1.46,3.27,3.27,3.27c.27,0,.53-.04.78-.1l1.42.74v-1.5c.66-.6,1.07-1.46,1.07-2.41,0-1.8-1.46-3.27-3.27-3.27"/><path id="path286" class="cls-1" d="M48.29,54.78c-.31.41-1.61.31-1.61.31v-2.02c.51,0,1.21.01,1.43.11.22.1.44.39.41.94-.02.55-.23.66-.23.66M49.24,52.12c-.74-.44-2.51-.41-2.51-.41h-1.83v6.34h1.78v-1.52c1.46-.04,2.1-.22,2.1-.22.84-.18,1.45-1.09,1.45-2.17s-.32-1.64-.98-2.03"/></g></g><g id="g3369"><path id="path290" class="cls-1" d="M48.37,16.35l-9.19-3.88c-.21-.09-.43-.13-.66-.13-.69,0-1.28.41-1.55.99l-3.04,5.92c-.14.24-.21.52-.21.82,0,.95.77,1.71,1.71,1.71h27.6c.95,0,1.71-.77,1.71-1.71,0-.3-.08-.58-.21-.82l-3.04-5.92c-.27-.59-.86-.99-1.55-.99-.23,0-.46.05-.66.13l-9.19,3.88c-.26.11-.56.17-.86.17s-.6-.06-.86-.17M49.23,6.2c.91,0,1.77-.2,2.54-.56L63.57.12c.19-.08.4-.12.61-.12.6,0,1.12.34,1.39.83l14.43,28.17c.09.2.14.42.14.65,0,.87-.71,1.58-1.58,1.58H19.89c-.87,0-1.58-.71-1.58-1.58,0-.23.05-.45.14-.65L32.89.83c.27-.49.79-.83,1.39-.83.22,0,.42.05.61.12l11.8,5.52c.77.36,1.63.56,2.54.56"/></g></g></g></g></svg>