<?xml version="1.0" encoding="utf-8"?>
<!-- Generator: Adobe Illustrator 23.0.1, SVG Export Plug-In . SVG Version: 6.00 Build 0)  -->
<svg version="1.1" id="Capa_3" xmlns="http://www.w3.org/2000/svg" xmlns:xlink="http://www.w3.org/1999/xlink" x="0px" y="0px"
	 viewBox="0 0 122 20" style="enable-background:new 0 0 122 20;" xml:space="preserve">
<style type="text/css">
	.st0{fill:#000000;}
</style>
<g>
	<path class="st0" d="M118.6,2.4c-0.1-0.3-0.3-0.5-0.4-0.6c-0.3-0.3-0.7-0.5-1.2-0.5l-0.8-0.2c-0.3-0.1-0.5-0.2-0.8-0.3
		c-0.5-0.3-1.1-0.4-1.6-0.5c-0.3-0.1-0.4,0.1-0.5,0.3l-0.4,0.5c-0.2,0.4-0.2,0.8-0.1,1.2c0.1,0.6,0.2,1.2,0.2,1.8
		c-0.1,0.5-0.1,1-0.2,1.3c-0.1,0.1,0,0.2,0.1,0.3l0.3,0.1l0.5,0.6c0.1,0.1,0.1,0.1,0.2,0.1c0.1,0,0.1,0,0.1,0l1-0.1
		c0.3-0.1,0.5-0.1,0.7-0.3c0.6-0.3,1.2-0.6,1.8-1.2c0.2-0.3,0.4-0.7,0.7-1.2l0.4-0.9C118.6,2.6,118.6,2.5,118.6,2.4L118.6,2.4z"/>
	<path class="st0" d="M119.7,5.1c-0.2-0.3-0.5-0.3-0.9-0.3c-0.5,0.2-0.9,0.5-1.4,1.1c-0.7,0.5-1.4,0.8-2.1,0.9
		C114.8,7,114.4,7,114,7c-0.1,0.1-0.2,0.2-0.3,0.5c-0.2,0.3-0.2,0.4-0.1,0.5l1.2,1.6L115,10c0.2,0.2,0.3,0.3,0.4,0.3
		c0.5,0.5,1.3,0.8,2.4,0.8c0.6-0.2,1-0.5,1.2-1.2c0.1-0.3,0.1-0.9,0.1-1.6l0.1-0.7c0.1-0.2,0.1-0.5,0.3-0.9c0.2-0.3,0.3-0.6,0.3-0.8
		c0.1-0.2,0.1-0.4,0.1-0.5C119.8,5.4,119.8,5.3,119.7,5.1L119.7,5.1z"/>
	<path class="st0" d="M115.7,13.4c0.2-0.1,0.3-0.3,0.4-0.3c0.1-0.1,0.1-0.3,0.2-0.5c0-0.4-0.1-0.7-0.2-0.9c-0.3-0.4-0.5-0.7-0.9-1
		c-0.7-0.6-1.1-1-1.2-1.2c-0.5-0.7-0.7-1.1-0.8-1.2c-0.1-0.1-0.1-0.1-0.1-0.1l-0.7,0.1c-0.1,0-0.1,0.1-0.2,0.2
		c-0.5,0.8-0.9,1.2-0.9,1.3l-0.8,0.9c-0.3,0.2-0.6,0.5-1,0.9c-0.1,0.2-0.2,0.4-0.3,0.5c-0.1,0.1-0.1,0.3-0.1,0.6
		c0.1,0.6,0.4,0.9,1,0.9c0.1,0,0.5-0.1,1.6-0.2c0.9-0.2,1.7-0.2,2.2-0.1l0.7,0.2C115,13.5,115.5,13.5,115.7,13.4L115.7,13.4z"/>
	<path class="st0" d="M117.1,13.8c-0.5,0.1-0.9,0.1-1.2,0.3c-0.1,0.1-0.2,0.1-0.3,0.2c-0.1,0.1-0.2,0.2-0.3,0.2
		c-0.3,0.1-0.4,0.2-0.5,0.3c-0.1,0.1-0.3,0.3-0.3,0.6c-0.1,0.3-0.1,0.5,0,0.7l0.1,0.3c0,0.1,0,0.3-0.1,0.3c-0.1,0.1-0.1,0.1-0.2,0.3
		c-0.2,0.1-0.4,0.3-0.6,0.3c-0.1,0.1-0.3,0-0.5-0.1C113,17.2,113,17,113,17v-0.5l0.1-0.5c0.1-0.2,0.1-0.5,0.1-0.9
		c-0.1-0.3-0.1-0.4-0.2-0.5c-0.1-0.1-0.3-0.2-0.5-0.2c-0.3,0.1-0.4,0.1-0.5,0.3c-0.1,0.1-0.2,0.3-0.2,0.7c0,0.3,0.1,0.5,0.1,0.7
		c0.1,0.1,0.1,0.3,0.2,0.7c0.1,0.3,0.1,0.4,0,0.4c-0.1,0.1-0.1,0.1-0.2,0.2c-0.2,0-0.4-0.1-0.6-0.1C111.1,17,111,17,111,17
		c-0.1-0.1-0.1-0.3-0.1-0.3v-0.3l0.2-0.5c0.1-0.2,0.1-0.4,0.1-0.6c-0.2-0.5-0.5-0.8-0.7-0.9c-0.3-0.1-0.6-0.2-1-0.3
		c-0.7-0.1-1.3-0.1-1.7,0.1c-0.3,0.1-0.7,0.1-1.2,0.1c-0.3,0-0.6-0.1-0.9-0.2c-0.1-0.1-0.2-0.1-0.3-0.2l-0.3-0.3
		c-0.2-0.1-0.3-0.1-0.4,0.1c-0.2,0.3-0.3,0.5-0.3,0.7l-0.1,0.6c-0.1,0.6-0.1,1.1-0.1,1.4c0.1,0.5,0.2,1.1,0.5,1.6
		c0.5,0.5,0.9,1,1.2,1.2c0.3,0.2,0.6,0.3,1.1,0.5c0.6,0.1,1.1,0.2,1.3,0.3c0.5-0.1,0.9-0.2,1.3-0.4c0.2-0.1,0.3-0.3,0.5-0.5
		c0.2-0.3,0.3-0.5,0.3-0.6c0.2-0.1,0.3-0.1,0.5,0c0.2,0.1,0.4,0.2,0.7,0.3l0.5,0.4c0.1,0.1,0.1,0.1,0.3,0.2c0.1,0.1,0.2,0.1,0.3,0.2
		c0.2-0.1,0.3-0.1,0.4-0.1l0.2-0.1c0.1-0.1,0.2-0.2,0.3-0.3c0.1-0.1,0.2-0.2,0.3-0.3c0.2-0.1,0.3-0.3,0.3-0.3
		c0.1-0.1,0.1-0.2,0.3-0.3c0.1-0.1,0.3-0.1,0.3-0.1c0.1,0,0.3,0.1,0.4,0.1c0.1,0.1,0.1,0.2,0.3,0.4c0.2,0.3,0.4,0.5,0.7,0.7
		c0.3,0.2,0.5,0.3,0.9,0.2c0.3-0.1,0.7-0.1,1.2-0.3c0.3-0.1,0.7-0.3,1.2-0.7l0.3-0.4c0.3-0.2,0.5-0.4,0.7-0.7l0.4-1.1
		c0.1-0.5,0.2-1.1,0.2-1.6l-0.1-0.8c-0.1-0.3-0.1-0.5-0.2-0.7l-0.3-0.6c-0.1-0.2-0.3-0.3-0.4-0.4c-0.2-0.1-0.3-0.1-0.4,0.1
		c-0.3,0.5-0.5,0.9-0.7,0.9l-0.5,0.3c-0.3,0.1-0.5,0.3-0.7,0.3C117.8,13.7,117.5,13.8,117.1,13.8L117.1,13.8z"/>
	<path class="st0" d="M109.8,0.5c-0.5,0.3-0.9,0.4-1.2,0.6c-0.2,0.1-0.4,0.3-0.6,0.3c-0.1,0.1-0.3,0.1-0.6,0.1
		c-0.6,0.1-1.1,0.1-1.4,0.3c-0.3,0.2-0.4,0.5-0.4,0.9c0,0.1,0.1,0.3,0.1,0.5c0.3,0.5,0.6,0.9,1,1.2l0.7,0.5c0.3,0.2,0.5,0.3,0.7,0.4
		c0.4,0.2,0.9,0.4,1.6,0.6c0.5,0.2,0.9,0.3,1.2,0.4c0.3,0.1,0.4,0.1,0.5,0.1c0.2-0.1,0.4-0.3,0.6-0.5l0.3-0.3
		c0.1-0.1,0.1-0.3,0.1-0.3c0.1-0.2,0.1-0.9-0.1-1.9l-0.1-0.8c-0.1-0.4-0.3-0.6-0.3-0.7c-0.1-0.1-0.1-0.2-0.3-0.4s-0.2-0.3-0.3-0.4
		c-0.1-0.1-0.3-0.2-0.5-0.3c-0.3-0.1-0.5-0.1-0.6-0.2C110,0.4,110,0.5,109.8,0.5L109.8,0.5z"/>
	<path class="st0" d="M105.5,5.6c-0.1,0.3-0.1,0.7-0.1,1c0.1,0.1,0.2,0.4,0.4,0.9C106,8,106,8.5,106,8.8c0.1,0.2,0,0.4-0.1,0.7
		c-0.1,0.1-0.1,0.3-0.1,0.5c-0.1,0.2,0,0.4,0.1,0.5c0.1,0.3,0.1,0.5,0.2,0.5c0.2,0.3,0.4,0.4,0.7,0.5c0.4,0.1,0.9,0.1,1.4-0.1
		c0.5-0.3,0.9-0.7,1.5-1.2c0.7-0.7,1.3-1.2,1.6-1.6l0.4-0.6c0-0.1,0-0.1,0-0.1l-0.3-0.6c-0.1-0.3-0.1-0.4-0.2-0.5
		c-0.1-0.1-0.2-0.1-0.5-0.1c-0.2,0-0.3-0.1-0.6-0.1c-1.3-0.3-2.5-0.8-3.6-1.4C106.2,5.2,105.8,5.3,105.5,5.6L105.5,5.6z"/>
	<path class="st0" d="M112.5,6c-0.2,0.1-0.3,0.1-0.4,0.3l-0.3,0.4c-0.1,0.2-0.1,0.3-0.1,0.5c0.1,0.2,0.2,0.3,0.3,0.3
		c0.1,0.1,0.2,0.1,0.3,0.2c0.1,0,0.3-0.1,0.5-0.1c0.2-0.1,0.3-0.3,0.5-0.5c0.1-0.2,0.1-0.3,0.1-0.5c-0.1-0.1-0.2-0.3-0.3-0.5
		C112.7,6.1,112.6,6,112.5,6L112.5,6z"/>
</g>
<g>
	<path class="st0" d="M97.2,9.5V5.7h-5.8c-1.2,0-2,0.4-2.6,1.2c-0.6,0.7-0.9,1.7-0.9,3c0.1,1.4,0.5,2.4,1.3,3
		c0.9,0.6,2.4,0.9,4.7,0.9c0.2,0.1,0.3,0.1,0.4,0.3c0.1,0.1,0.1,0.2,0.1,0.4c-0.1,0.2-0.1,0.3-0.1,0.5c-0.1,0.1-0.2,0.2-0.4,0.2
		h-5.7v3.9h5.5c1.2,0,2.2-0.3,3-1c0.6-0.5,0.9-1.2,1.2-1.8v-2.2c-0.2-0.8-0.7-1.6-1.4-2.1c-0.6-0.4-1.4-0.7-2.3-0.8L92,10.8
		c-0.3-0.1-0.5-0.3-0.5-0.7c0-0.1,0.1-0.3,0.1-0.4c0.1-0.1,0.2-0.2,0.4-0.2L97.2,9.5L97.2,9.5z"/>
	<path class="st0" d="M84.8,6.7c-0.5-0.7-1.3-1.1-2.2-1.1h-3.7c-1.6,0-2.8,0.7-3.9,2c-1.1,1.4-1.6,2.8-1.6,4.6
		c0,1.8,0.5,3.2,1.6,4.6c1.1,1.4,2.4,2,3.9,2h6.8v-3.9h-6.8c-0.5,0-1-0.3-1.4-0.9c-0.4-0.5-0.6-1.2-0.6-1.8s0.2-1.3,0.6-1.9
		c0.4-0.6,0.9-0.9,1.4-0.9h2.2c0.1-0.1,0.3,0.1,0.4,0.3c0.1,0.2,0.1,0.4,0,0.5c-0.4,0.8-1,1.8-1.8,3.1h3.7
		C85.2,10.7,85.7,8.5,84.8,6.7L84.8,6.7z"/>
	<path class="st0" d="M69.8,7.2c-0.5-0.5-1.1-0.9-1.8-1.2c-0.6-0.3-1.2-0.4-1.9-0.4h-2v3.9h2c0.5,0,1,0.3,1.4,0.8
		c0.4,0.5,0.6,1.2,0.6,1.9c0,0.7-0.2,1.4-0.6,2c-0.4,0.5-0.9,0.8-1.4,0.8H63V1.5h-3.4v17.4h6.6c0.6,0,1.2-0.1,1.9-0.4
		c0.6-0.3,1.2-0.7,1.7-1.4c1.2-1.3,1.8-2.9,1.8-4.9C71.7,10.1,71.1,8.5,69.8,7.2L69.8,7.2z"/>
	<path class="st0" d="M51.2,5.7c-1.6,0-2.8,0.7-3.9,2c-1,1.3-1.6,2.8-1.5,4.7c-0.1,1.8,0.5,3.3,1.5,4.6c1.1,1.4,2.4,2,3.9,2H53v-3.9
		h-1.9c-0.5,0-1-0.3-1.4-0.8s-0.6-1.2-0.6-1.9c-0.1-0.7,0.1-1.4,0.6-2c0.4-0.5,0.9-0.8,1.4-0.8h3.2v9.4h3.4V5.7H51.2L51.2,5.7z"/>
	<path class="st0" d="M35.8,5.7H34c-1.6,0-2.8,0.5-3.9,1.7s-1.6,2.5-1.6,4.2v7.3h3.8v-7.4c0-0.5,0.1-0.9,0.4-1.4
		c0.3-0.4,0.7-0.7,1.2-0.7h1.8L35.8,5.7L35.8,5.7z"/>
	<path class="st0" d="M44.7,5.7h-1.8c-1.6,0-2.8,0.6-3.9,1.7c-1,1.2-1.6,2.5-1.6,4.1v7.4h3.8v-7.4c0-0.5,0.1-0.9,0.4-1.4
		c0.3-0.4,0.7-0.7,1.2-0.7h1.8L44.7,5.7L44.7,5.7z"/>
	<path class="st0" d="M18.9,14.2c-0.4-0.5-0.6-1.2-0.6-1.9c0-0.7,0.2-1.4,0.6-2c0.4-0.5,0.9-0.8,1.4-0.8h3.1v9.3h3.4V5.7h-6.5
		c-1.6,0-2.9,0.7-3.9,2c-0.9,1.3-1.5,2.8-1.5,4.7s0.5,3.3,1.5,4.6c1.1,1.4,2.4,2,3.9,2h2v-3.9h-2C19.7,15,19.3,14.7,18.9,14.2
		L18.9,14.2z"/>
	<path class="st0" d="M13,12.2c-0.1-2.1-0.6-3.7-1.8-4.9c-0.5-0.6-1.1-1-1.8-1.3C8.9,5.7,8.2,5.6,7.6,5.6h-2v3.9h2
		C8,9.5,8.5,9.7,9,10.3c0.4,0.6,0.6,1.2,0.6,2c0,0.7-0.2,1.4-0.6,1.9c-0.4,0.5-0.9,0.8-1.4,0.8H4.4V1.4L1,1.3v17.5h6.6
		c0.6,0.1,1.2-0.1,1.9-0.4c0.7-0.3,1.2-0.8,1.8-1.4C12.4,15.8,13,14.2,13,12.2L13,12.2z"/>
</g>
</svg>
