<?xml version="1.0" encoding="UTF-8"?><svg id="Capa_2" xmlns="http://www.w3.org/2000/svg" viewBox="0 0 121.04 60.38"><defs><style>.cls-1{stroke-width:0px;}</style></defs><g id="Capa_2-2"><path class="cls-1" d="M120.81,35.36c-.61-.65-1.44-.38-1.44-.38h-7.16c.99-2.81,1.5-5.76,1.5-8.76,0-14.46-11.7-26.22-26.08-26.22H26.08C11.7,0,0,11.76,0,26.22c0,6.45,2.36,12.66,6.64,17.47l.28.32c0,3.02,0,5.34,0,6.31,0,4.48,1.93,5.62,3.94,7.44,2.01,1.82,3.11,2.62,4.21,2.62s1.1-1.48,1.1-1.48v-8.42c3.15,1.3,6.48,1.96,9.9,1.96h61.56c7.39,0,14.46-3.17,19.4-8.71l.23-.25h6.56c2.32,0,3.11-1.48,3.11-1.48,0,0,2.89-3.91,3.3-4.56.42-.65,1.18-1.44.57-2.09ZM90.63,16.72v17.73h-9.94c-.17.04-.37.01-.4-.03-.01-.02-.03-.19.16-.56.6-1.16,7.86-13.28,10.18-17.14ZM16.62,18.09c.77-.06,2.71-.17,4.3.18,2.03.44,2.43,2.07,2.41,3.37-.03,1.74-.66,2.84-2.05,3.57-1.28.67-3.74.66-4.66.63v-7.74ZM6.57,12.35l-.03,30.06C2.81,37.86.76,32.15.76,26.22.76,12.18,12.12.76,26.08.76h61.56c13.96,0,25.32,11.42,25.32,25.46,0,2.87-.47,5.69-1.41,8.38h-10.86V11.21c0-.72-.23-1.3-.7-1.73-.93-.87-2.45-.78-2.49-.78h-3.8c-1.92,0-2.6.75-2.88,1.84-1.11-1.97-3.49-1.8-3.5-1.8h-10.47s-.05,0-.07,0c-2.75,0-3.58,2.26-3.57,2.26l-1.16,2.29c0-.51,0-1.15.02-1.97.01-.8-.24-1.44-.75-1.91-1.03-.93-2.71-.76-2.73-.76-1.59-.04-15.58-.4-17.35.33-1.2.5-2.38,2.57-3.12,4.09v-1.16c-.01-1.14-.36-2-1.05-2.57-1.14-.94-2.75-.66-2.75-.66,0,0-5.43-.04-9.49-.04-1.45,0-2.48.4-3.06,1.18-.73.99-.47,2.23-.4,2.52v1.69c-.87-1.4-2.6-3.48-5.6-4.6-3.86-1.43-8.51-1.22-12.61-1.03-.85.04-1.68.08-2.45.1-1.61.04-2.79.5-3.48,1.37-.89,1.11-.65,2.46-.64,2.46ZM87.64,51.68H26.08c-3.29,0-6.49-.63-9.52-1.86v-18.42l2.45,2.11c1.23,1.06,2.24,1.7,5.09,1.07,3.85-.96,6.19-3.4,7.27-4.82v11.06c0,2.37,2.58,3.05,3.95,3.08h11.81c2.87,0,3.45-1.88,3.44-1.88.1-.19,2.54-4.54,2.85-5.91.14-.62-.05-.99-.23-1.19-.46-.5-1.28-.39-1.32-.38h-10.44v-3.37c1.28.02,5.36.04,6.95-.25,2.38-.75,4.1-4.99,4.83-6.79l.15-.37c.22-.52.21-.95-.03-1.29-.39-.56-1.24-.54-1.31-.53h-10.59v-3.91h12.98v22.48c0,1.44.33,2.45.99,2.99.63.52,1.32.39,1.3.39.03,0,1.74-.04,4.74-.04,1.02,0,1.8-.31,2.31-.91.85-1,.62-2.43.62-2.43v-22.55h14.45c-1.66,2.84-9.01,15.47-11.22,19.96-.91,1.84-1.05,3.33-.44,4.41.8,1.41,2.57,1.56,2.67,1.57h14.35s.47,0,.47,0c1.58.01,2.71.02,4.07-1.53.76-.86,1.45-2.02,1.93-2.91.05.52.13,1.17.26,2,.38,2.31,2.61,2.58,3.68,2.41h11.31c-4.76,4.98-11.37,7.82-18.25,7.82Z"/><path class="cls-1" d="M105.51,28.94c1.9,0,3.46-1.55,3.46-3.46s-1.55-3.46-3.46-3.46-3.46,1.55-3.46,3.46,1.55,3.46,3.46,3.46ZM106.41,24.62c-.02.24-.27.27-.37.28h-.87v-.5c.27,0,.63,0,.9,0,.21.03.31.09.34.13,0,0,.01.02,0,.07v.02ZM105.51,22.79c1.49,0,2.7,1.21,2.7,2.7,0,.18-.02.35-.05.52-.01.05-.03.11-.04.16-.03.11-.06.22-.1.32-.02.06-.06.12-.08.17-.04.09-.09.18-.15.27-.04.06-.08.11-.12.16-.03.05-.07.09-.11.13l-.89-1.31c.35-.11.74-.33.84-.77.14-.61.09-.94-.21-1.37-.31-.43-1.06-.49-1.23-.5h-2.06v4.38h1.14v-1.63h.29l1,1.63h.66s-.02.02-.04.03c-.04.03-.08.05-.12.07-.1.06-.2.12-.3.16-.05.02-.1.04-.15.06-.11.04-.21.07-.33.1-.05.01-.1.03-.15.04-.16.03-.33.05-.5.05-1.49,0-2.7-1.21-2.7-2.7s1.21-2.7,2.7-2.7Z"/></g></svg>