<?xml version="1.0" encoding="UTF-8"?><svg id="Capa_2" xmlns="http://www.w3.org/2000/svg" viewBox="0 0 130.7 60"><defs><style>.cls-1{fill:#010101;stroke-width:0px;}</style></defs><g id="Capa_2-2"><path class="cls-1" d="M130.68,49.88v9.34c0,.21,0,.22-.22.22h-17.22c-.42,0-.37.06-.37-.37v-15.33c.02-3.48-.69-6.92-2.07-10.11-3.11-7.09-9.31-12.36-16.81-14.29-2.22-.55-4.5-.81-6.78-.77-.42,0-.36.06-.36-.37V.36q0-.34.35-.34c1.33,0,2.66,0,3.99.13,18.22,1.49,33.5,14.32,38.12,32.01.5,1.88.86,3.8,1.09,5.73.19,1.63.3,3.27.3,4.91-.01,2.37-.02,4.73-.02,7.08Z"/><path class="cls-1" d="M86.85,29.73v-8.47c-.03-.26-.03-.52,0-.78.25-.05.51-.06.77-.03,2.22,0,4.42.3,6.55.92,7.93,2.3,14.05,8.63,16.09,16.64.43,1.67.68,3.39.72,5.12v15.94c0,.41.04.35-.36.35h-12.65c-.37,0-.33.04-.33-.32v-10.22c-.02-4.73-3.38-8.79-8.03-9.69-.62-.12-1.26-.18-1.89-.18h-.69c-.12,0-.19,0-.17-.16v-9.12h0Z"/><path class="cls-1" d="M48.73,30.14l.4.19c.9.39,1.54,1.21,1.69,2.18.13.67.19,1.36.19,2.04,0,.81,0,1.64.04,2.43.01.27.05.54.12.8.07.28.25.51.51.64.07.03.16.04.16.14,0,.12,0,.25,0,.37,0,.04-.05.05-.09.05h-3.95c-.29,0-.25.05-.34-.27-.23-.93-.34-1.88-.33-2.83v-1.64c0-.29-.03-.57-.09-.86-.08-.84-.75-1.51-1.6-1.57-.38-.07-.77-.1-1.15-.1h-4.07c-.06,0-.11.04-.11.1,0,0,0,0,0,.01v6.85c0,.35.04.32-.32.32h-3.22q-.24,0-.25-.23v-18.13c0-.16.06-.19.2-.19h9.26c.76,0,1.52.1,2.25.33,1.75.53,3.05,2,3.36,3.79.27,1.14.15,2.35-.35,3.41-.42.93-1.18,1.66-2.13,2.05-.06,0-.13,0-.18.11ZM42.84,23.67h-2.49c-.26,0-.24,0-.24.23v4.48c0,.24,0,.22.25.22h4.51c.43,0,.87-.06,1.28-.18.73-.19,1.29-.78,1.42-1.52.08-.39.1-.79.05-1.18-.06-.93-.73-1.71-1.64-1.92-.26-.08-.53-.12-.8-.13h-2.35Z"/><path class="cls-1" d="M3.63,25.82v12.84c0,.38.05.34-.33.34H.32c-.37,0-.32,0-.32-.33v-18.01c0-.14,0-.22.19-.2.05,0,.09,0,.14,0h3.47c.18-.03.36.08.43.25,2.35,4.12,4.7,8.24,7.05,12.36.05.09.1.18.17.29.05-.09.07-.2.05-.31v-12.09c0-.16-.07-.37.04-.47s.29,0,.45,0h2.87c.27,0,.26-.03.26.27v17.94c0,.37.03.32-.33.32h-3.28c-.18.02-.35-.09-.42-.26l-7.27-12.69-.15-.25h-.04Z"/><path class="cls-1" d="M34.7,29.73c.02,1.38-.18,2.75-.59,4.07-.76,2.5-2.72,4.45-5.22,5.19-2.06.68-4.28.67-6.33-.05-2.55-.82-4.5-2.87-5.18-5.46-.27-.95-.42-1.92-.45-2.91-.07-1.22.01-2.45.24-3.65.25-1.36.81-2.65,1.64-3.76,1.03-1.32,2.44-2.27,4.05-2.73,2.01-.64,4.17-.61,6.17.08,2.49.78,4.43,2.75,5.16,5.26.36,1.16.54,2.37.55,3.58l-.02.38ZM30.82,29.62c0-.38,0-.87-.09-1.36-.09-.79-.31-1.57-.64-2.3-1.13-2.39-3.98-3.4-6.37-2.27-.18.08-.34.18-.51.28-.94.61-1.63,1.53-1.98,2.59-.33.94-.49,1.93-.5,2.92-.04,1.03.08,2.06.36,3.06.24.93.74,1.78,1.45,2.43,1.4,1.3,3.44,1.62,5.17.82,1.2-.5,2.11-1.5,2.52-2.73.4-1.1.6-2.27.57-3.44Z"/><path class="cls-1" d="M69.01,29.73v-8.91q0-.37.39-.37h3.24q.25,0,.25.25v6.48c0,.28-.04.28.28.28h6.82c.09,0,.12-.04.11-.13v-6.71c0-.07.04-.19.18-.19h3.47q.23,0,.23.23v17.97q0,.35-.35.35h-3.4c-.09,0-.12-.05-.12-.13v-7.87c0-.37.04-.32-.32-.32h-6.71c-.13,0-.2,0-.19.17v7.96c0,.16-.05.19-.2.19h-3.44q-.23,0-.23-.25v-9.02h-.01Z"/><path class="cls-1" d="M69,9.29v8.96q0,.31-.3.31h-3.28c-.32,0-.28,0-.28-.28v-7.81c0-.21,0-.22-.22-.22h-6.77q-.23,0-.23.27v7.64q0,.39-.39.39h-3.21c-.36,0-.31,0-.31-.31V.22q.03-.21.2-.21h3.48c.2,0,.21,0,.21.2v6.69c0,.1.04.14.14.13h6.95c.09,0,.15,0,.14-.13s0-.14,0-.2V.13c0-.09.04-.12.12-.11h3.5c.28,0,.26-.03.26.26v9.01Z"/><path class="cls-1" d="M70.65,50.17v-8.97c0-.35-.03-.32.3-.32h12.73s.08,0,.11,0c.16,0,.19.05.19.2v2.93c0,.11,0,.18-.16.16h-9.28c-.37,0-.32-.04-.32.33v3.28c0,.27-.03.26.27.26h8.11c.21,0,.21,0,.21.23v2.84c0,.21,0,.22-.22.22h-8.23c-.09,0-.12.04-.12.13v4.39c0,.31-.04.28.27.28h9.15c.35,0,.31-.05.32.3v2.73c0,.26,0,.23-.23.23h-12.88c-.26,0-.23,0-.23-.27v-8.94Z"/><path class="cls-1" d="M70.65,9.29V.32c0-.36-.04-.31.3-.31h12.79c.27,0,.25,0,.25.25v2.78c0,.29,0,.26-.27.26h-9.11q-.35,0-.35.35v3.24c0,.33,0,.29.29.29h8.04c.26,0,.25-.03.25.25v2.78c0,.29,0,.26-.27.26h-7.99c-.38,0-.32-.04-.32.32v4.34c0,.06.05.15.16.14h9.28c.37,0,.32-.05.32.32v2.73c0,.2,0,.2-.21.2h-12.85c-.37,0-.32.05-.32-.32v-8.92Z"/><path class="cls-1" d="M35.72,59.41c.09-.28.19-.55.29-.84,2.06-5.78,4.12-11.55,6.18-17.32.16-.45.04-.36.51-.37h3.82q.27,0,.36.26c2.11,6,4.22,12.01,6.34,18.01.09.04.12.14.09.22s-.14.12-.22.09c0,0-.02,0-.03-.01h-3.71q-.26,0-.33-.25c-.34-1.11-.69-2.23-1.04-3.34-.07-.23-.08-.23-.31-.23h-6.36c-.23,0-.23,0-.31.23-.36,1.09-.74,2.2-1.14,3.34-.09.28,0,.25-.32.25h-3.62c-.07,0-.15,0-.21-.04ZM46.84,52.41l-2.29-7.29h-.05c-.79,2.42-1.57,4.84-2.36,7.29h4.7Z"/><path class="cls-1" d="M86.85,50.18v-8.97c0-.38,0-.31.33-.32,1.07-.05,2.14.1,3.16.45,2.78.93,4.81,3.31,5.29,6.2.08.44.12.88.11,1.32v10.27c0,.38.04.32-.33.32h-8.24c-.34,0-.32.07-.32-.33v-8.94Z"/><path class="cls-1" d="M69.1,53.17c-.59,2.77-1.87,5.02-4.61,6.18-1.42.56-2.97.76-4.49.58-1.04-.09-2.05-.37-2.99-.84-1.59-.82-2.84-2.17-3.53-3.82-.44-1.03-.72-2.12-.83-3.23-.12-1.03-.13-2.06-.04-3.09.1-1.73.63-3.41,1.54-4.88,1.09-1.74,2.85-2.95,4.86-3.36,1.86-.44,3.82-.3,5.59.4,2.32.87,4,2.91,4.41,5.35.04.18.13.4.04.55s-.34.04-.55.05h-3.09c-.23,0-.22,0-.29-.21-.09-.3-.2-.6-.33-.9-.39-.94-1.2-1.64-2.18-1.89-.89-.26-1.84-.26-2.73,0-1.14.35-2.07,1.16-2.58,2.24-.37.77-.61,1.59-.69,2.43-.12,1-.12,2.01,0,3,.1,1.01.42,1.98.92,2.87.69,1.26,2.02,2.03,3.45,2.03.76.05,1.51-.11,2.18-.45.89-.47,1.55-1.28,1.84-2.24.08-.21.14-.42.18-.64,0-.09.05-.15.17-.15h3.71l.03.03Z"/><path class="cls-1" d="M24.87,50.19v-9.11c0-.16.05-.21.2-.19.05,0,.09,0,.14,0h12.5c.37,0,.34-.05.34.34v2.69c0,.3,0,.26-.27.26h-8.77c-.28,0-.28-.04-.28.28v3.59c0,.34-.04.31.3.31h7.53c.35,0,.32-.05.32.33v2.64q0,.33-.32.33h-7.65c-.18,0-.17.04-.16.17s0,.13,0,.2v7.1c0,.38,0,.32-.33.32h-3.18c-.4,0-.36.07-.36-.34l-.03-8.9Z"/><path class="cls-1" d="M62.03,31.35v7.47c0,.06-.03.2-.17.19s-.27,0-.4,0h-3.01c-.31,0-.29.04-.29-.3v-14.68c0-.27,0-.27-.27-.27h-5.15q-.2,0-.2-.21v-2.89c0-.2,0-.21.2-.21h14.53q.34,0,.34.35v2.63c0,.35.03.3-.32.3h-5.15c-.09,0-.11.04-.11.12v7.49Z"/><path class="cls-1" d="M47.05,10.92v7.41c0,.21,0,.22-.22.22h-3.44q-.21,0-.21-.2V3.61c0-.36.06-.33-.32-.33h-5.11c-.07,0-.19-.03-.17-.16,0-.08,0-.15,0-.23V.29c0-.32-.04-.29.29-.29h14.54c.23,0,.24,0,.24.23v2.82c0,.24,0,.25-.26.25h-5.08c-.27,0-.25,0-.25.25v7.37Z"/></g></svg>