<?xml version="1.0" encoding="UTF-8"?><svg id="Capa_2" xmlns="http://www.w3.org/2000/svg" viewBox="0 0 629.91 60"><defs><style>.cls-1{stroke-width:0px;}</style></defs><g id="Capa_2-2"><g id="g26"><g id="g20"><g id="g14"><path id="path2" class="cls-1" d="M195.55,53.73c-3.39,2.71-7.76,4.43-13.11,5.17s-12.23,1.11-20.65,1.11-15.92-.47-22.04-1.39-11.42-2.84-15.89-5.73l-.57-17.54c3.82,2.74,7.65,4.78,11.47,6.14s7.83,2.27,12.05,2.71c4.2.44,9.37.65,15.48.65s10.19-.24,12.7-.74c1.8-.33,2.71-1.33,2.71-3.04s-.89-2.78-2.71-3.11c-1.21-.27-3.22-.54-6.06-.82l-17.87-1.56c-6.71-.6-11.96-1.39-15.74-2.37-3.77-.98-6.68-2.64-8.73-4.95-2.04-2.33-3.08-5.69-3.08-10.12,0-5.08,1.55-8.93,4.63-11.55s7.31-4.37,12.66-5.25S153.04.03,161.45.03c6.94,0,13.24.38,18.93,1.15,5.68.77,10.54,2.16,14.59,4.17l.57,16.31c-3.55-1.92-7.01-3.35-10.36-4.3-3.36-.95-6.87-1.59-10.53-1.89s-8.22-.45-13.68-.45c-6.34,0-10.57.3-12.7.89-1.48.38-2.21,1.23-2.21,2.54,0,1.48.74,2.34,2.21,2.63,2.19.44,4.2.71,6.06.82l17.87,1.48c6.88.54,12.29,1.33,16.22,2.37,3.93,1.04,6.95,2.77,9.05,5.21,2.1,2.44,3.15,5.95,3.15,10.53.01,5.45-1.67,9.54-5.07,12.25h0Z"/><path id="path4" class="cls-1" d="M279.11,53.84c-4.64,2.46-9.45,4.1-14.42,4.91-4.97.82-10.96,1.23-17.95,1.23-9.66,0-17.6-.88-23.8-2.63-6.2-1.75-10.94-4.81-14.22-9.18s-4.91-10.43-4.91-18.19,1.63-13.98,4.91-18.35c3.28-4.37,7.95-7.41,14.01-9.1C228.79.85,236.49,0,245.83,0,253.16,0,259.34.38,264.39,1.15s9.76,2.37,14.13,4.84l.65,17.46c-4.37-2.89-8.59-4.81-12.66-5.73-4.07-.92-9.32-1.39-15.77-1.39-5.96,0-10.52.26-13.68.78s-5.63,1.75-7.38,3.69c-1.75,1.94-2.63,4.98-2.63,9.14s.89,7.18,2.71,9.1c1.8,1.92,4.26,3.11,7.38,3.56,3.11.47,7.65.7,13.6.7,4.64,0,8.47-.16,11.47-.5,3.01-.33,5.88-.98,8.6-1.97,2.72-.98,5.7-2.46,8.93-4.43l-.64,17.46Z"/><path id="path6" class="cls-1" d="M347.44,1.32l27.12,57.36h-23.93l-5.9-13.44h-34.41l-5.82,13.44h-23.93L307.61,1.32h39.83ZM338.27,30.33l-10.73-24.58-10.73,24.58h21.46Z"/><path id="path8" class="cls-1" d="M446.81,34.26c-3.36,2.78-8.51,4.54-15.44,5.25l20.48,19.17h-25.49l-26.47-27.29v27.29h-21.3V1.97c3.11-.71,6.8-1.22,11.05-1.52s11.28-.45,21.06-.45c8.63,0,15.51.3,20.65.91,5.14.6,9.28,1.86,12.46,3.77,5.35,3.16,8.03,8.5,8.03,15.98,0,6.29-1.69,10.81-5.04,13.6ZM427.18,15.54c-1.15-.85-3.08-1.26-5.82-1.26h-21.47v12.7h21.47c2.72,0,4.67-.45,5.82-1.35s1.72-2.55,1.72-4.95c0-2.58-.57-4.29-1.72-5.14Z"/><path id="path10" class="cls-1" d="M527.13,33.32c-2.75,2.98-6.68,5.01-11.76,6.1-5.08,1.09-11.61,1.63-19.58,1.63h-16.31v17.61h-21.3V1.97c3.11-.71,6.8-1.22,11.05-1.52s11.28-.45,21.06-.45c8.63,0,15.51.3,20.65.91,5.14.6,9.28,1.86,12.46,3.77,2.63,1.53,4.58,3.6,5.9,6.23,1.31,2.63,1.97,5.88,1.97,9.75-.01,5.46-1.39,9.68-4.14,12.66ZM506.64,15.5c-1.12-.82-3.02-1.23-5.69-1.23h-21.47v12.7h21.47c2.72,0,4.64-.44,5.73-1.31,1.09-.88,1.63-2.54,1.63-5,0-2.63-.55-4.34-1.67-5.17Z"/><path id="path12" class="cls-1" d="M588.69,1.32l27.12,57.36h-23.93l-5.9-13.44h-34.41l-5.82,13.44h-23.93l27.03-57.36h39.83ZM579.51,30.33l-10.73-24.58-10.73,24.58h21.46Z"/></g><g id="g18"><path id="path16" class="cls-1" d="M41.11.01C12.02.01,0,8.29,0,30s12.02,29.99,41.11,29.99,41.11-8.36,41.11-29.99S70.2.01,41.11.01ZM9.92,30c0-15.58,8.1-21.03,31.19-21.03,15.14,0,23.84,2.34,28.03,8.34h-23.1c-1.87,0-3.66.74-5,2.07l-2.68,2.68-14.82,14.83c-.67.67-1.56,1.04-2.5,1.04h-10.13c-.68-2.28-.99-4.92-.99-7.93ZM41.11,50.95c-15.06,0-23.74-2.36-27.96-8.26h23.03c1.87,0,3.66-.74,4.98-2.06l2.7-2.68,14.83-14.83c.67-.67,1.56-1.04,2.5-1.04h10.16c.65,2.28.96,4.92.96,7.93-.01,15.43-8.1,20.93-31.21,20.93Z"/></g></g><g id="g24"><path id="path22" class="cls-1" d="M629.91,9.52c0,6.93-3.21,9.55-11.72,9.55s-11.72-2.63-11.72-9.55S609.72.01,618.19.01s11.72,2.61,11.72,9.51ZM627.19,9.52c0-5.34-2.21-7.11-9-7.11s-9,1.77-9,7.11,2.26,7.15,9,7.15c6.78-.01,9-1.79,9-7.15ZM620.75,10.91l3.32,3.09h-3.46l-4.78-4.68v4.68h-2.84V4.98c.81-.11,2.1-.23,4.39-.23,2.47,0,3.68.11,4.71.37,1.36.33,1.92,1.25,1.92,2.77-.01,2-.94,2.88-3.25,3.02h0ZM615.81,8.88h4.04c.96,0,1.18-.26,1.18-.99,0-.7-.26-.92-1.22-.99-.85-.07-1.7-.07-2.47-.07-.81,0-1.25.04-1.55.04v2.02h.01Z"/></g></g></g></svg>